<?xml version="1.0" standalone="no"?>
<!DOCTYPE svg PUBLIC "-//W3C//DTD SVG 20010904//EN"
 "http://www.w3.org/TR/2001/REC-SVG-20010904/DTD/svg10.dtd">
<svg version="1.0" xmlns="http://www.w3.org/2000/svg"
 width="1024.000000pt" height="1024.000000pt" viewBox="0 0 1024.000000 1024.000000"
 preserveAspectRatio="xMidYMid meet">
<metadata>
Created by potrace 1.14, written by Peter Selinger 2001-2017
</metadata>
<g transform="translate(0.000000,1024.000000) scale(0.100000,-0.100000)"
fill="#000000" stroke="none">
<path d="M0 8390 l0 -1850 183 0 c129 0 187 4 195 12 9 9 12 9 12 -1 0 -10 11
-12 44 -7 46 7 66 -4 42 -23 -9 -8 -22 -8 -38 -2 -14 5 -30 6 -36 2 -7 -4 -42
-4 -79 0 -38 5 -126 8 -196 8 l-128 1 3 -368 c2 -279 6 -373 16 -384 10 -13 9
-18 -3 -28 -13 -11 -15 -108 -15 -786 l0 -774 278 -2 c175 -1 246 -4 192 -8
-47 -3 -146 -4 -220 -2 -75 3 -162 2 -193 -2 l-57 -7 0 -2085 0 -2084 5120 0
5120 0 0 5120 0 5120 -5120 0 -5120 0 0 -1850z m3018 965 l20 -25 203 0 c111
0 200 -2 198 -5 -3 -2 -95 -5 -204 -5 -186 -2 -200 -3 -213 -21 -22 -31 -84
-23 -96 13 -20 57 54 92 92 43z m1642 -10 c0 -13 51 -15 378 -18 207 -1 73 -2
-298 -2 -371 0 -546 1 -387 2 246 3 287 5 287 18 0 8 5 15 10 15 6 0 10 -7 10
-15z m840 0 c25 -30 -11 -72 -51 -60 -20 7 -35 47 -24 64 9 16 61 13 75 -4z
m622 -2 c27 -24 23 -61 -8 -73 -52 -20 -97 36 -58 74 20 21 43 20 66 -1z
m1652 1 c10 -27 7 -43 -13 -54 -11 -5 -26 -7 -35 -4 -21 8 -30 42 -16 59 16
20 56 19 64 -1z m-5657 -36 c-3 -7 -5 -2 -5 12 0 14 2 19 5 13 2 -7 2 -19 0
-25z m741 15 c-27 -2 -69 -2 -95 0 -27 2 -5 3 47 3 52 0 74 -1 48 -3z m3115 0
c-23 -2 -64 -2 -90 0 -26 2 -7 3 42 3 50 0 71 -1 48 -3z m1054 -109 c110 -88
106 -221 -9 -307 -55 -41 -157 -32 -219 20 -42 36 -59 74 -59 133 0 83 32 135
105 175 48 26 136 16 182 -21z m-3232 6 c70 -34 102 -119 75 -196 -6 -16 -29
-42 -50 -58 l-40 -30 0 -93 c0 -75 -3 -93 -15 -93 -11 0 -15 19 -17 92 -2 62
-7 93 -15 96 -10 3 -13 -20 -13 -92 0 -87 -2 -96 -19 -96 -17 0 -18 7 -13 90
l5 90 -48 51 c-47 50 -47 50 -43 112 2 52 8 67 32 95 27 29 66 49 105 51 8 1
33 -8 56 -19z m4425 -41 c0 -20 -15 -26 -25 -9 -9 15 3 43 15 35 5 -3 10 -15
10 -26z m-6590 0 l35 -1 -34 -10 c-19 -5 -41 -17 -47 -26 -12 -16 -14 -16 -27
2 -12 16 -21 18 -58 12 -61 -10 -128 -41 -167 -79 -75 -71 -101 -169 -102
-374 l0 -113 940 0 940 0 2 43 1 42 4 -42 4 -43 925 0 924 0 0 23 c0 17 2 19
9 7 6 -8 7 -18 5 -22 -3 -4 788 -8 1757 -8 1371 0 1760 3 1751 12 -22 22 -13
29 10 8 21 -19 34 -20 250 -20 265 0 341 -11 458 -68 111 -54 217 -162 270
-274 76 -162 73 -124 74 -965 1 -414 -1 -753 -4 -753 -3 0 -5 -15 -3 -32 2
-29 2 -304 0 -1086 0 -106 -4 -187 -9 -180 -4 7 -8 -61 -8 -152 0 -110 4 -160
10 -150 13 20 13 -164 0 -250 -6 -39 -12 -512 -15 -1175 -6 -1428 -9 -1556
-30 -1629 -34 -117 -120 -248 -209 -318 -58 -46 -98 -68 -186 -99 l-65 -24
-3965 -3 c-4353 -2 -3996 -7 -4130 55 -62 29 -170 102 -170 114 0 5 -7 9 -15
9 -8 0 -15 5 -15 10 0 6 -5 9 -11 8 -18 -5 -86 101 -114 176 -16 42 -30 107
-35 165 -6 56 -10 1025 -10 2329 0 1778 -3 2232 -12 2233 -10 0 -10 2 0 6 9 4
12 161 12 741 0 783 1 795 49 923 48 128 170 263 292 323 79 39 185 66 260 66
l47 0 4 173 c4 153 7 178 27 225 32 71 115 146 184 166 29 8 68 19 87 25 19 5
44 8 55 5 11 -2 36 -4 55 -5z m930 -49 c0 -44 -30 -95 -67 -113 -40 -20 -82
-29 -104 -22 -32 10 -21 24 15 18 42 -7 99 19 127 59 17 23 20 39 16 75 -3 28
-1 40 4 32 5 -8 9 -30 9 -49z m-1360 40 c0 -5 -4 -10 -10 -10 -5 0 -10 5 -10
10 0 6 5 10 10 10 6 0 10 -4 10 -10z m7330 1 c14 -4 -27 -6 -90 -4 -151 5
-172 11 -40 11 58 0 116 -3 130 -7z m-5504 -20 c103 -47 121 -182 34 -255 -70
-59 -163 -44 -223 35 -50 68 -19 175 63 217 53 27 73 27 126 3z m4454 -11 c8
-5 5 -9 -9 -13 -17 -4 -21 -1 -21 21 0 19 3 23 9 13 5 -7 14 -17 21 -21z
m1156 -19 c50 -36 91 -83 109 -128 26 -62 16 -60 -14 2 -30 63 -62 99 -121
134 -19 11 -30 21 -24 21 6 0 29 -13 50 -29z m-2938 -22 c37 -23 65 -86 57
-127 -10 -55 -65 -102 -118 -102 -23 0 -47 4 -54 8 -6 4 14 7 44 7 49 0 58 3
84 33 31 35 36 68 18 120 -29 83 -165 82 -199 -2 -7 -16 -9 -17 -9 -4 -1 23
47 67 84 77 38 10 66 7 93 -10z m-1132 -24 c3 -14 4 -51 1 -83 -4 -31 -6 -65
-7 -74 0 -16 -12 -18 -109 -18 -90 0 -110 3 -115 16 -8 21 -8 169 1 177 3 4
55 7 114 7 108 0 109 0 115 -25z m1808 -36 c79 -94 -29 -226 -129 -158 -19 13
-35 28 -35 32 0 5 -5 5 -10 2 -7 -4 -8 3 -4 21 5 18 3 25 -4 20 -6 -4 -8 2 -5
14 4 14 0 20 -11 20 -18 0 -19 4 -10 38 4 12 12 22 19 22 8 0 11 -8 8 -20 -8
-29 9 -25 42 10 23 24 37 30 71 30 35 0 47 -5 68 -31z m-4015 -13 c-3 -3 -11
5 -18 17 -13 21 -12 21 5 5 10 -10 16 -20 13 -22z m3278 28 c-3 -3 -12 -4 -19
-1 -8 3 -5 6 6 6 11 1 17 -2 13 -5z m2358 -17 c22 -13 52 -42 68 -69 69 -111
10 -246 -121 -277 -66 -16 -121 -1 -168 45 -42 43 -55 73 -56 135 0 61 32 121
84 159 53 39 132 42 193 7z m-4538 -17 c109 0 105 -8 -5 -11 -76 -2 -82 -3
-83 -23 0 -20 -1 -20 -8 -2 -4 11 -16 23 -27 27 -17 7 -17 8 4 8 14 1 22 8 23
19 1 16 2 16 6 0 4 -15 17 -18 90 -18z m2223 -14 c0 -5 -7 -1 -15 10 -8 10
-14 24 -14 29 0 6 6 1 14 -9 8 -11 15 -24 15 -30z m-412 13 l27 -1 -25 -6
c-14 -4 -72 -5 -130 -1 l-105 5 98 2 c69 1 97 6 98 15 0 10 2 10 6 0 2 -7 17
-13 31 -14z m336 6 c-4 -8 -2 -15 4 -15 6 0 12 5 14 12 3 7 7 5 11 -6 4 -9 3
-15 -2 -11 -5 3 -17 -2 -25 -11 -15 -14 -16 -13 -16 9 0 13 3 27 7 30 10 11
13 8 7 -8z m856 6 c0 -6 -4 -13 -10 -16 -5 -3 -10 1 -10 9 0 9 5 16 10 16 6 0
10 -4 10 -9z m-2477 -18 c-13 -2 -33 -2 -45 0 -13 2 -3 4 22 4 25 0 35 -2 23
-4z m1012 -3 c12 -5 -66 -8 -200 -8 -124 1 -192 4 -155 8 105 9 333 10 355 0z
m1058 -7 c-18 -2 -48 -2 -65 0 -18 2 -4 4 32 4 36 0 50 -2 33 -4z m-387 -58
c-22 -33 -63 -43 -84 -21 -14 14 -14 17 -2 14 8 -2 18 -7 22 -12 12 -17 57 12
64 41 4 15 9 22 12 15 2 -7 -3 -24 -12 -37z m2634 -45 c-11 -12 -16 -12 -18
-3 -2 7 -8 13 -13 13 -6 0 -2 11 8 24 18 23 18 23 28 2 8 -16 7 -24 -5 -36z
m850 46 c0 -3 -4 -8 -10 -11 -5 -3 -10 -1 -10 4 0 6 5 11 10 11 6 0 10 -2 10
-4z m-8195 -15 c3 -5 1 -12 -5 -16 -5 -3 -10 1 -10 9 0 18 6 21 15 7z m807
-28 c13 -11 21 -12 37 -3 25 13 27 7 5 -14 -12 -12 -13 -23 -5 -51 8 -30 6
-42 -10 -70 -11 -19 -26 -32 -33 -29 -7 3 -19 -2 -26 -11 -16 -19 -27 -19 -46
0 -14 13 -17 13 -30 0 -17 -17 -44 -20 -44 -6 0 5 9 13 21 16 19 6 19 8 4 25
-9 10 -21 34 -26 55 -8 29 -7 41 6 62 33 49 106 63 147 26z m378 -18 c0 -8 -5
-17 -11 -21 -16 -9 -30 18 -17 33 12 15 28 8 28 -12z m1935 -35 c-5 -8 -11 -8
-17 -2 -6 6 -7 16 -3 22 5 8 11 8 17 2 6 -6 7 -16 3 -22z m2562 8 c-3 -8 -6
-5 -6 6 -1 11 2 17 5 13 3 -3 4 -12 1 -19z m-2767 -38 c12 -23 6 -40 -15 -40
-19 0 -27 17 -20 40 8 26 21 25 35 0z m-270 -8 c0 -26 -11 -34 -27 -21 -10 9
-10 15 -2 25 16 19 29 17 29 -4z m3838 -14 c16 -16 15 -33 -4 -52 -22 -23 -43
-20 -56 9 -19 41 28 75 60 43z m-4948 -44 c0 -20 5 -24 31 -24 17 0 28 -4 24
-10 -3 -5 -13 -10 -21 -10 -9 0 -24 -10 -35 -22 l-18 -23 -1 23 c0 13 -6 22
-15 22 -8 0 -15 5 -15 10 0 6 5 10 10 10 6 0 10 11 10 23 0 13 3 27 6 30 12
11 24 -3 24 -29z m-523 10 c8 -21 -13 -42 -28 -27 -13 13 -5 43 11 43 6 0 13
-7 17 -16z m2263 -29 c0 -8 -7 -15 -15 -15 -8 0 -15 7 -15 15 0 8 7 15 15 15
8 0 15 -7 15 -15z m170 6 c0 -20 -13 -41 -21 -35 -15 9 -10 44 6 44 8 0 15 -4
15 -9z m4615 -21 c-5 -8 -11 -8 -17 -2 -6 6 -7 16 -3 22 5 8 11 8 17 2 6 -6 7
-16 3 -22z m-7211 14 c20 -8 21 -34 1 -34 -8 0 -15 2 -15 4 0 2 -3 11 -6 20
-7 18 -4 19 20 10z m5221 -14 c0 -22 -29 -18 -33 3 -3 14 1 18 15 15 10 -2 18
-10 18 -18z m-1325 -5 c0 -8 -7 -15 -15 -15 -8 0 -15 7 -15 15 0 8 7 15 15 15
8 0 15 -7 15 -15z m-4598 -20 c0 -5 -5 -11 -11 -13 -6 -2 -11 4 -11 13 0 9 5
15 11 13 6 -2 11 -8 11 -13z m2136 -3 c2 -7 -3 -12 -12 -12 -9 0 -16 7 -16 16
0 17 22 14 28 -4z m2682 -4 c0 -18 -2 -20 -9 -8 -6 8 -7 18 -5 22 9 14 14 9
14 -14z m-5570 -408 c0 -5 -4 -10 -10 -10 -5 0 -10 5 -10 10 0 6 5 10 10 10 6
0 10 -4 10 -10z m-142 -234 c4 -31 -10 -46 -45 -46 -16 0 -25 8 -29 25 -10 40
2 57 38 53 28 -3 34 -7 36 -32z m9757 -11 c0 -25 -4 -31 -27 -33 -22 -3 -29 2
-34 22 -8 34 3 48 34 44 23 -2 27 -8 27 -33z m-9686 -191 c13 -9 29 -32 37
-50 12 -29 12 -39 0 -67 -33 -79 -113 -101 -165 -45 -36 39 -47 79 -32 117 23
55 110 79 160 45z m64 -504 l68 0 -3 -162 -3 -163 -50 -1 -50 -2 47 7 46 6 -2
143 c-2 78 -5 144 -7 146 -7 7 -48 8 -186 7 l-131 -1 -1 -140 -2 -140 158 -2
c145 -1 151 -2 73 -9 -110 -9 -245 -11 -253 -3 -4 4 -4 11 -1 16 3 5 5 74 5
153 l-2 144 48 4 c26 3 77 3 113 1 36 -2 96 -4 133 -4z m9728 -6 c4 -2 5 -23
4 -46 -2 -24 -4 -65 -6 -93 -2 -37 -4 -26 -8 40 l-6 90 -157 3 c-143 2 -157 1
-161 -15 -4 -14 -5 -13 -6 4 -1 20 5 22 57 26 60 5 272 -2 283 -9z m-168 -34
c-14 -6 -32 -6 -45 0 -19 7 -15 9 22 9 37 0 41 -2 23 -9z m-9735 -27 c-10 -2
-28 -2 -40 0 -13 2 -5 4 17 4 22 1 32 -1 23 -4z m197 1 c-46 -7 -123 -8 -118
-1 2 4 34 6 71 6 37 -1 58 -3 47 -5z m9638 -31 c-13 -2 -35 -2 -50 0 -16 2 -5
4 22 4 28 0 40 -2 28 -4z m-9690 -10 c-40 -2 -107 -2 -150 0 -43 1 -10 3 72 3
83 0 118 -2 78 -3z m52 -33 c3 -5 -2 -10 -12 -10 -10 0 -71 -3 -135 -7 -110
-5 -133 -1 -111 20 11 11 251 8 258 -3z m-104 -119 c-12 -8 -51 -4 -51 5 0 2
15 4 33 4 22 0 28 -3 18 -9z m9717 -613 c-2 -211 -3 -247 -5 -120 l-3 182 -68
2 -67 2 68 3 67 4 0 114 c0 63 2 115 5 115 3 0 4 -136 3 -302z m-9840 200 c-2
-13 -7 -23 -13 -23 -5 0 -11 10 -13 23 -2 15 2 22 13 22 11 0 15 -7 13 -22z
m2 -358 c0 -5 -4 -10 -10 -10 -5 0 -10 5 -10 10 0 6 5 10 10 10 6 0 10 -4 10
-10z m254 -206 c9 -8 16 -19 16 -24 0 -14 -30 -40 -46 -40 -16 0 -29 42 -20
65 7 19 30 19 50 -1z m9667 -41 c-11 -16 -40 -50 -64 -77 l-43 -48 -57 69
c-31 39 -57 73 -57 77 0 3 54 6 121 6 l120 0 -20 -27z m129 -298 c18 -22 3
-55 -25 -55 -13 0 -28 6 -32 14 -4 7 -15 16 -23 19 -12 4 -11 6 3 6 9 1 17 5
17 10 0 8 14 15 41 20 4 0 12 -6 19 -14z m-180 -265 c-9 -9 -17 -12 -19 -5 -2
5 -9 13 -15 17 -8 5 -7 8 2 8 6 0 12 8 12 17 0 15 2 14 18 -2 16 -17 16 -21 2
-35z m-9845 -20 c-5 -8 -11 -8 -17 -2 -6 6 -7 16 -3 22 5 8 11 8 17 2 6 -6 7
-16 3 -22z m74 -240 c36 -26 40 -34 35 -58 -10 -39 -14 -40 -14 -4 0 23 -8 37
-33 56 -19 15 -44 26 -56 26 -27 0 -73 -23 -92 -46 -13 -16 -12 -17 11 -10 72
21 150 19 150 -4 0 -6 -9 -6 -24 0 -14 5 -33 8 -43 6 -102 -18 -93 -12 -94
-69 l-1 -52 -8 47 c-5 26 -11 52 -15 58 -6 10 26 42 69 67 35 20 71 15 115
-17z m9308 -102 c-2 -13 -4 -3 -4 22 0 25 2 35 4 23 2 -13 2 -33 0 -45z
m-9329 5 c4 -56 -11 -83 -47 -83 -32 0 -41 14 -41 63 0 48 21 68 65 64 16 -2
21 -10 23 -44z m39 -60 c-3 -10 -5 -4 -5 12 0 17 2 24 5 18 2 -7 2 -21 0 -30z
m-10 -48 c-5 -11 -22 -15 -68 -15 -74 0 -73 8 2 16 30 3 56 10 58 16 1 5 5 7
8 4 3 -3 3 -12 0 -21z m9300 -57 c-2 -13 -4 -3 -4 22 0 25 2 35 4 23 2 -13 2
-33 0 -45z m476 -19 c31 -14 57 -59 57 -99 0 -36 -42 -85 -83 -95 -55 -14
-118 44 -120 110 -2 69 78 115 146 84z m-9849 -368 c8 -11 8 -15 -1 -18 -7 -3
-13 -18 -13 -33 0 -16 -4 -32 -10 -35 -6 -4 -10 7 -10 25 0 17 -6 33 -14 36
-11 4 -10 12 7 38 16 24 23 29 26 17 2 -9 8 -22 15 -30z m9696 -120 c0 -5 -7
-11 -15 -15 -15 -5 -20 5 -8 17 9 10 23 9 23 -2z m70 -19 c0 -4 -6 -14 -12
-21 -11 -10 -10 -14 5 -22 9 -6 17 -14 17 -20 0 -5 -13 0 -29 12 -16 12 -34
18 -40 15 -7 -5 -9 -1 -5 8 3 9 15 16 25 16 10 0 19 5 19 10 0 6 5 10 10 10 6
0 10 -4 10 -8z m-89 -35 c-10 -9 -11 -8 -5 6 3 10 9 15 12 12 3 -3 0 -11 -7
-18z m-51 -17 c-36 -32 -50 -37 -50 -19 0 17 43 48 65 48 17 0 14 -5 -15 -29z
m112 -31 c28 -38 25 -62 -14 -112 -33 -41 -70 -67 -66 -45 2 7 10 18 18 25 13
10 13 12 1 13 -25 0 -61 42 -61 70 0 40 35 80 70 80 21 0 36 -9 52 -31z
m-9560 -16 c-4 -19 -7 -23 -10 -10 -2 9 -8 17 -14 17 -6 0 -6 6 2 15 18 21 28
10 22 -22z m9642 -26 c4 -18 3 -26 -3 -23 -5 4 -11 0 -13 -9 -2 -11 -7 -12
-18 -4 -11 8 -12 12 -2 16 13 5 16 29 5 36 -5 2 -2 2 6 0 9 -2 11 2 7 14 -5
11 -4 14 2 8 5 -5 12 -23 16 -38z m-239 -1 c-3 -31 1 -41 33 -95 11 -18 10
-20 -3 -15 -27 11 -52 76 -43 112 11 42 17 41 13 -2z m-9685 -30 c0 -3 -4 -8
-10 -11 -5 -3 -10 -1 -10 4 0 6 5 11 10 11 6 0 10 -2 10 -4z m9890 -34 c0 -17
-28 -45 -38 -38 -8 5 -6 13 6 26 18 20 32 25 32 12z m-9687 -296 c72 -31 119
-103 119 -182 0 -121 -143 -217 -259 -173 -67 25 -123 107 -123 181 0 67 58
152 120 177 37 14 106 13 143 -3z m9934 -232 c8 -20 -8 -48 -30 -52 -18 -4
-41 33 -33 54 7 19 55 18 63 -2z m-9926 -467 c-1 -12 -15 -9 -19 4 -3 6 1 10
8 8 6 -3 11 -8 11 -12z m9671 -52 c66 -61 36 -152 -57 -169 -16 -4 -23 -3 -15
0 66 28 80 38 90 68 19 59 -11 104 -78 117 l-37 7 35 1 c25 1 43 -6 62 -24z
m-9692 -220 l0 -135 -84 0 c-99 0 -93 -10 -95 154 l-2 116 90 0 91 0 0 -135z
m-17 -507 l82 -2 -82 -3 -83 -4 -2 -122 c-2 -78 -4 -37 -8 113 -3 129 -3 244
0 255 3 11 6 -37 8 -107 l3 -128 82 -2z m9720 35 c-13 -2 -33 -2 -45 0 -13 2
-3 4 22 4 25 0 35 -2 23 -4z m-9538 -33 c-3 -5 -10 -10 -16 -10 -5 0 -9 5 -9
10 0 6 7 10 16 10 8 0 12 -4 9 -10z m9532 -27 c-3 -10 -5 -4 -5 12 0 17 2 24
5 18 2 -7 2 -21 0 -30z m53 -93 c0 -5 -17 -9 -37 -9 l-38 2 35 7 c19 4 36 8
38 9 1 0 2 -3 2 -9z m-9820 -315 c0 -7 -9 -20 -20 -30 -19 -17 -21 -17 -40 0
-26 24 -25 49 3 62 17 8 26 7 40 -5 9 -8 17 -20 17 -27z m9790 14 c0 -6 -4 -7
-10 -4 -5 3 -10 0 -10 -9 0 -8 6 -17 13 -19 9 -4 9 -6 -1 -6 -16 -1 -26 24
-18 45 6 16 26 11 26 -7z m-6953 -971 c-3 -7 -5 -2 -5 12 0 14 2 19 5 13 2 -7
2 -19 0 -25z m-10 -110 c-2 -18 -4 -4 -4 32 0 36 2 50 4 33 2 -18 2 -48 0 -65z
m687 57 c5 -22 4 -26 -4 -15 -5 8 -10 24 -10 34 0 26 6 18 14 -19z m4042 0
c109 -32 163 -148 114 -244 -73 -144 -260 -140 -326 6 -31 70 -6 169 53 209
68 46 89 50 159 29z m-4115 -38 c-8 -8 -11 -7 -11 4 0 20 13 34 18 19 3 -7 -1
-17 -7 -23z m176 -54 c-2 -16 -4 -3 -4 27 0 30 2 43 4 28 2 -16 2 -40 0 -55z
m2772 3 c27 -15 80 -66 67 -66 -4 0 -19 11 -34 25 -15 14 -38 28 -52 31 -50
11 -60 15 -60 24 0 11 45 3 79 -14z m-1757 -19 c-17 -18 -19 -26 -10 -42 11
-19 11 -20 -9 -2 -14 12 -23 15 -28 8 -3 -6 -10 -11 -16 -11 -5 0 -4 9 3 20 7
11 18 20 24 20 6 0 19 9 29 20 10 11 21 18 23 15 3 -3 -4 -15 -16 -28z m1668
23 c0 -5 -7 -10 -16 -10 -9 0 -31 -15 -50 -34 -31 -31 -34 -39 -35 -97 0 -53
-2 -60 -10 -39 -13 30 -4 96 17 128 14 22 70 62 87 62 4 0 7 -4 7 -10z m-2855
-9 c3 -5 1 -12 -5 -16 -5 -3 -10 1 -10 9 0 18 6 21 15 7z m-587 -55 c56 -18
99 -91 87 -148 -9 -38 -53 -100 -66 -92 -5 3 -9 0 -9 -6 0 -6 -5 -8 -11 -4 -8
4 -5 10 7 17 60 33 80 97 49 157 -21 40 -53 60 -99 60 -31 0 -45 -7 -72 -36
-66 -69 -37 -165 58 -190 38 -11 40 -12 13 -13 -69 -2 -138 87 -120 156 11 45
120 136 135 113 3 -4 15 -11 28 -14z m5807 5 c-3 -6 -11 -11 -16 -11 -5 0 -4
6 3 14 14 16 24 13 13 -3z m-2297 -3 c7 -7 12 -23 12 -37 0 -25 0 -25 -20 7
-31 50 -68 40 -55 -16 5 -24 10 -28 34 -24 24 3 30 -1 41 -28 19 -45 4 -65
-49 -65 -22 0 -41 3 -41 8 0 4 0 43 0 87 l0 80 33 0 c18 0 38 -5 45 -12z
m-3526 -76 c-1 -8 2 -11 7 -7 15 9 32 -32 25 -60 -12 -47 -72 -61 -98 -23 -17
24 -12 63 12 91 18 20 59 19 54 -1z m-669 -153 c15 -24 -16 -69 -46 -68 -21 1
-20 1 3 8 19 5 26 15 28 38 3 26 -1 32 -20 36 -23 4 -23 4 1 3 13 -1 29 -8 34
-17z m3132 1 c11 -17 -5 -50 -24 -50 -24 0 -45 25 -37 45 6 17 51 21 61 5z
m-3208 -37 c-3 -10 -5 -4 -5 12 0 17 2 24 5 18 2 -7 2 -21 0 -30z m2000 31
c-3 -3 -12 -4 -19 -1 -8 3 -5 6 6 6 11 1 17 -2 13 -5z"/>
<path d="M2956 9333 c-8 -19 10 -34 31 -26 7 3 13 14 13 24 0 24 -35 26 -44 2z"/>
<path d="M6070 9310 c0 -23 35 -28 43 -6 7 18 -1 26 -25 26 -11 0 -18 -7 -18
-20z"/>
<path d="M3675 9168 c-35 -31 -42 -83 -16 -125 12 -18 26 -33 31 -33 7 0 5 9
-4 22 -21 29 -21 107 -1 114 8 4 13 9 10 13 -2 4 15 7 38 7 36 -1 44 -5 59
-33 25 -46 22 -70 -12 -105 -37 -37 -37 -39 -1 -27 16 6 36 25 46 43 49 91
-72 191 -150 124z m68 5 c-7 -2 -19 -2 -25 0 -7 3 -2 5 12 5 14 0 19 -2 13 -5z"/>
<path d="M6031 8021 c-21 -21 -18 -59 6 -68 8 -3 26 0 39 6 19 8 25 17 22 38
-4 36 -42 49 -67 24z"/>
<path d="M3300 7840 l0 -190 35 0 c33 0 35 2 35 34 0 80 23 86 65 16 28 -48
31 -50 73 -50 32 0 41 3 35 13 -4 6 -27 40 -51 75 -49 70 -50 63 22 140 l40
42 -46 0 c-43 0 -48 -3 -92 -56 l-46 -56 0 111 0 111 -35 0 -35 0 0 -190z"/>
<path d="M6614 8010 c-49 -15 -79 -55 -79 -106 0 -54 19 -75 100 -108 69 -28
85 -57 42 -77 -20 -9 -36 -8 -73 5 -50 17 -58 15 -68 -21 -6 -17 -1 -25 21
-36 106 -53 218 -8 218 88 0 55 -19 76 -101 111 -42 18 -64 33 -64 44 0 40 51
52 100 23 28 -16 29 -16 49 8 27 32 26 38 -11 54 -48 19 -99 25 -134 15z"/>
<path d="M2625 7998 c-2 -7 -8 -88 -12 -181 l-8 -167 38 0 37 0 0 63 c0 34 3
79 7 101 l6 38 34 -83 c18 -46 40 -90 48 -98 22 -23 49 8 87 102 l33 80 3
-102 3 -101 39 0 40 0 0 53 c0 30 -3 108 -7 175 l-6 122 -34 6 c-46 9 -55 -2
-92 -110 -17 -48 -35 -94 -39 -102 -5 -8 -24 27 -53 99 l-45 112 -37 3 c-24 2
-39 -1 -42 -10z"/>
<path d="M1240 7988 c-72 -20 -120 -88 -120 -168 0 -62 18 -100 67 -137 31
-24 46 -28 102 -28 110 0 161 42 169 139 2 30 2 66 -2 80 -9 37 -56 87 -101
107 -45 21 -64 22 -115 7z m35 -108 c6 -26 10 -30 38 -27 29 2 32 -1 35 -30 3
-32 2 -33 -32 -33 -33 0 -36 -2 -36 -30 0 -23 -5 -30 -19 -30 -17 0 -19 5 -14
35 5 33 4 35 -21 35 -33 0 -33 14 -1 42 14 12 25 32 25 45 0 33 17 28 25 -7z"/>
<path d="M5736 7984 c-3 -9 -6 -24 -6 -35 0 -10 -7 -19 -15 -19 -10 0 -15 -11
-15 -35 0 -26 3 -33 15 -29 13 5 15 -8 15 -85 0 -77 3 -94 20 -111 24 -24 62
-34 95 -26 20 5 25 13 25 36 0 27 -3 30 -30 30 l-30 0 0 74 c0 74 0 75 28 78
21 2 28 9 30 31 3 24 0 27 -27 27 -29 0 -31 2 -31 40 0 39 -1 40 -34 40 -22 0
-36 -6 -40 -16z"/>
<path d="M7090 7971 c0 -29 -21 -57 -33 -44 -4 3 -7 -8 -7 -26 0 -19 6 -34 15
-37 12 -5 15 -24 15 -84 0 -88 18 -124 70 -135 46 -10 70 2 70 35 0 24 -5 29
-27 32 -24 3 -29 9 -37 49 -13 65 -3 97 32 101 21 2 28 9 30 31 3 24 0 27 -27
27 -29 0 -31 2 -31 40 0 39 -1 40 -35 40 -32 0 -35 -3 -35 -29z"/>
<path d="M8715 7929 c-11 -34 12 -40 136 -36 131 5 144 9 129 38 -10 17 -22
19 -135 19 -117 0 -124 -1 -130 -21z"/>
<path d="M3085 7923 c-39 -6 -49 -16 -40 -42 5 -17 14 -21 54 -21 34 0 53 -5
64 -18 22 -24 24 -50 2 -32 -20 17 -90 3 -122 -24 -32 -27 -35 -89 -6 -118 31
-30 89 -35 123 -9 21 15 28 17 24 6 -5 -12 2 -15 30 -15 l36 0 0 94 c0 102
-10 145 -40 164 -23 14 -84 22 -125 15z m89 -161 c3 -4 -1 -19 -7 -33 -9 -17
-21 -24 -42 -24 -36 0 -47 31 -19 52 20 14 60 17 68 5z"/>
<path d="M3995 7922 l-30 -3 -1 -179 -1 -180 38 0 39 0 0 57 c0 44 3 54 12 45
17 -17 100 -15 126 4 52 36 69 136 34 204 -24 49 -84 70 -132 47 -26 -14 -35
-14 -44 -4 -6 7 -24 11 -41 9z m153 -90 c17 -23 15 -82 -5 -104 -21 -23 -65
-23 -87 1 -27 30 -18 102 14 118 28 14 59 8 78 -15z"/>
<path d="M4315 7922 c-23 -6 -31 -13 -33 -35 -3 -27 -2 -27 52 -27 44 0 57 -4
66 -19 17 -32 13 -43 -10 -31 -45 24 -118 -12 -135 -68 -22 -75 75 -131 139
-81 20 16 26 17 26 6 0 -9 12 -17 29 -19 27 -4 29 -1 34 32 2 20 1 72 -3 114
-6 63 -12 83 -31 102 -26 25 -85 37 -134 26z m90 -162 c4 -6 -1 -22 -9 -35
-19 -29 -61 -33 -71 -8 -12 33 62 72 80 43z"/>
<path d="M5008 7910 c-30 -16 -37 -17 -42 -5 -8 21 -75 19 -98 -2 -17 -15 -18
-15 -18 0 0 13 -9 17 -35 17 l-35 0 0 -135 0 -135 35 0 34 0 3 93 3 92 33 3
32 3 0 -95 0 -96 40 0 40 0 0 94 c0 87 2 94 21 99 44 12 49 1 49 -99 l0 -94
41 0 42 0 -5 108 c-6 123 -14 145 -59 161 -41 14 -38 14 -81 -9z"/>
<path d="M5253 7919 c-42 -12 -70 -50 -79 -106 -18 -119 63 -193 176 -163 33
9 40 15 40 35 0 22 -4 24 -61 27 -52 3 -64 7 -77 26 l-15 24 86 -4 87 -3 0 43
c0 43 -18 89 -42 109 -20 17 -79 23 -115 12z m77 -71 c30 -32 25 -38 -30 -38
-56 0 -67 17 -28 44 29 21 33 20 58 -6z"/>
<path d="M6245 7915 c-19 -10 -31 -12 -33 -6 -2 6 -19 11 -38 11 l-34 0 0
-135 0 -135 35 0 c21 0 35 5 36 13 0 6 0 44 0 82 -1 78 3 91 39 99 45 11 53
-5 58 -103 l4 -91 35 0 35 0 -3 115 c-4 98 -7 117 -24 135 -28 28 -74 34 -110
15z"/>
<path d="M6860 7923 c-35 -7 -44 -18 -31 -42 9 -16 21 -21 56 -21 45 0 75 -19
75 -47 0 -11 -5 -13 -17 -8 -38 16 -62 16 -91 1 -58 -30 -71 -98 -27 -141 29
-30 68 -32 113 -5 26 16 32 17 32 5 0 -10 10 -15 31 -15 l32 0 -5 104 c-3 56
-11 113 -17 124 -22 42 -77 58 -151 45z m90 -177 c0 -29 -18 -46 -51 -46 -64
0 -34 62 32 67 13 1 19 -5 19 -21z"/>
<path d="M7305 7923 c-32 -8 -54 -33 -61 -69 -9 -51 15 -80 82 -100 55 -16 63
-28 32 -48 -11 -7 -29 -6 -58 4 -36 12 -43 12 -51 -1 -5 -8 -8 -20 -6 -28 3
-21 82 -44 124 -36 91 17 115 123 33 154 -16 6 -43 16 -60 22 -31 12 -40 34
-18 41 7 3 30 0 51 -5 32 -8 40 -7 52 9 21 28 19 33 -20 50 -34 14 -62 16
-100 7z"/>
<path d="M3609 7907 c-35 -27 -52 -67 -51 -122 1 -75 25 -114 80 -133 71 -23
160 6 136 44 -8 14 -22 17 -63 15 -53 -3 -81 10 -81 36 0 12 15 14 79 12 44
-2 83 0 87 3 15 16 -8 102 -36 130 -24 24 -36 28 -82 28 -29 0 -60 -6 -69 -13z
m111 -68 c14 -26 15 -25 -42 -33 -43 -6 -48 -5 -48 11 0 44 70 61 90 22z"/>
<path d="M4490 7918 c0 -2 18 -51 41 -109 65 -165 64 -157 23 -196 -41 -38
-39 -63 4 -63 51 0 78 32 122 148 22 59 51 133 65 165 l24 57 -42 0 -42 0 -23
-74 c-12 -40 -22 -79 -22 -87 -1 -22 -32 41 -50 101 -16 54 -17 55 -58 58 -23
2 -42 2 -42 0z"/>
<path d="M5440 7785 l0 -135 40 0 39 0 3 93 3 92 37 3 36 3 7 -55 c4 -30 5
-73 3 -96 l-4 -40 38 0 38 0 0 100 c0 105 -13 151 -45 164 -28 10 -90 7 -104
-6 -11 -10 -14 -10 -18 0 -3 6 -20 12 -39 12 l-34 0 0 -135z"/>
<path d="M6020 7785 l0 -135 40 0 40 0 0 135 0 135 -40 0 -40 0 0 -135z"/>
<path d="M8710 7822 c0 -35 21 -42 125 -42 124 0 147 6 143 34 -3 20 -9 21
-135 24 -123 2 -133 1 -133 -16z"/>
<path d="M8713 7714 c-12 -32 24 -44 138 -44 85 0 111 3 124 16 12 12 13 19 4
30 -9 11 -42 14 -136 14 -105 0 -125 -2 -130 -16z"/>
<path d="M6522 6834 c4 -21 22 -23 26 -1 2 10 -3 17 -13 17 -10 0 -15 -6 -13
-16z"/>
<path d="M7453 6783 c4 -38 7 -83 7 -100 0 -24 5 -33 16 -33 12 0 15 6 10 23
-3 12 -6 57 -6 100 0 65 -3 77 -16 77 -15 0 -16 -9 -11 -67z"/>
<path d="M5866 6821 c-29 -31 -17 -63 32 -86 32 -15 42 -25 42 -43 0 -22 -3
-24 -45 -20 -55 4 -64 -14 -13 -26 52 -13 90 12 86 57 -2 26 -10 35 -40 49
-44 21 -54 34 -38 53 17 20 47 19 59 -2 9 -17 10 -17 17 1 14 37 -69 52 -100
17z"/>
<path d="M3156 6803 c5 -17 15 -20 61 -22 31 -1 74 -6 96 -11 22 -4 46 -6 53
-3 8 3 14 0 14 -5 0 -6 -7 -12 -15 -14 -13 -2 -12 -6 5 -20 19 -17 20 -17 20
7 0 14 5 25 10 25 6 0 10 -23 10 -50 0 -61 -13 -69 -70 -46 -46 18 -50 19 -49
9 3 -21 -2 -25 -13 -10 -8 10 -34 20 -61 23 -40 6 -47 4 -41 -9 3 -9 14 -14
25 -12 10 2 19 0 19 -6 0 -5 6 -9 14 -9 19 0 28 -27 15 -48 -8 -13 -26 -18
-70 -19 -33 -1 -57 1 -55 5 5 9 -23 8 -137 -2 -48 -5 -109 -9 -135 -11 -26 -1
-71 -13 -100 -26 l-54 -24 -19 24 c-17 21 -19 21 -19 4 0 -12 -11 -23 -32 -31
-45 -16 -141 -72 -135 -78 3 -3 27 6 54 19 58 30 146 57 185 57 16 0 31 7 34
15 4 8 10 15 16 15 5 0 6 -5 2 -11 -4 -8 3 -9 22 -5 109 21 212 28 339 23 181
-8 244 -19 390 -68 145 -49 228 -90 357 -175 248 -164 465 -493 513 -776 6
-36 20 -56 32 -44 3 3 -4 38 -16 78 -37 126 -22 190 28 119 24 -33 51 -129 51
-179 l0 -33 -52 3 -52 3 -36 125 c-20 69 -59 169 -86 222 -86 169 -237 346
-397 465 -88 65 -307 163 -440 197 -194 50 -480 50 -637 1 -65 -20 -30 -18 80
5 126 26 288 26 445 0 180 -30 322 -83 470 -173 117 -72 168 -117 289 -256 94
-109 117 -143 172 -256 40 -82 68 -152 74 -190 6 -33 13 -73 15 -90 5 -26 4
-28 -9 -15 -7 8 -21 47 -29 87 -9 39 -43 128 -76 198 -51 106 -74 141 -147
223 -48 53 -94 109 -103 123 -9 14 -30 37 -46 51 -39 32 -173 118 -184 118 -5
0 -11 3 -13 8 -3 8 -135 70 -218 102 -83 33 -199 50 -371 57 -160 6 -305 -7
-344 -31 -11 -6 -53 -25 -93 -40 -40 -16 -71 -30 -69 -32 4 -4 119 38 177 65
50 23 482 22 585 -2 127 -29 455 -198 529 -273 17 -17 42 -47 56 -66 14 -20
56 -69 94 -109 105 -113 212 -341 199 -424 -5 -32 -1 -39 38 -75 53 -49 79
-56 232 -67 l119 -8 -7 50 c-28 218 -157 531 -295 715 -84 112 -220 252 -237
246 -7 -3 -15 0 -19 6 -4 7 -3 8 4 4 7 -4 12 -5 12 -2 0 8 -231 158 -305 197
-142 75 -340 136 -519 159 -39 5 -90 12 -113 16 -38 6 -41 5 -37 -13z m324
-133 c0 -11 -7 -20 -15 -20 -15 0 -21 21 -8 33 12 13 23 7 23 -13z m128 -14
c2 -10 0 -22 -5 -27 -14 -14 -58 24 -49 40 11 18 50 9 54 -13z m107 -36 c-8
-16 -15 -36 -15 -45 0 -8 -3 -15 -6 -15 -5 0 -45 20 -52 26 -7 5 63 63 76 64
10 0 9 -7 -3 -30z m-312 8 c57 -12 58 -13 53 -40 -7 -36 11 -47 24 -14 5 14
16 26 25 26 29 0 124 -38 146 -59 l23 -21 -21 -22 -22 -21 -55 26 c-30 14 -88
34 -128 43 -40 8 -81 20 -90 25 -10 5 -34 9 -53 9 -37 0 -42 9 -25 41 13 22
40 24 123 7z m414 -9 c33 -16 43 -26 43 -45 0 -33 -22 -30 -42 7 -11 19 -24
29 -35 27 -27 -5 -26 -27 1 -38 15 -5 37 -19 49 -31 25 -23 57 -43 57 -34 0 3
-6 14 -12 25 -10 16 -10 23 4 36 15 15 17 15 34 -5 10 -11 23 -21 29 -21 14 0
155 -118 155 -130 0 -5 -11 -17 -25 -26 -14 -9 -25 -20 -25 -25 0 -16 24 -9
54 16 l29 23 19 -23 c23 -30 23 -30 -9 -70 l-27 -34 -50 42 c-75 60 -82 71
-54 77 31 8 34 34 8 60 -25 25 -50 20 -50 -10 0 -13 -7 -20 -20 -20 -13 0 -20
7 -20 20 0 11 6 20 13 20 7 0 18 10 26 21 10 17 10 23 0 29 -25 16 -44 -3 -40
-37 1 -7 -3 -13 -8 -13 -6 0 -7 -8 -4 -17 5 -13 1 -11 -18 6 -30 28 -80 56
-96 53 -13 -3 -93 35 -93 43 0 14 46 95 54 95 5 0 29 -9 53 -21z m-27 -138
c41 -21 75 -42 75 -47 0 -5 -7 -20 -17 -32 l-16 -24 -64 36 c-34 20 -72 43
-82 51 -19 14 -19 15 -1 35 10 11 21 20 24 20 3 -1 40 -18 81 -39z m168 -101
c34 -21 81 -69 82 -83 0 -10 -26 -37 -35 -37 -4 0 -28 17 -54 39 -25 21 -57
44 -70 51 l-23 12 28 19 c36 23 32 23 72 -1z m305 -172 c-29 -28 -52 -12 -45
32 3 19 0 30 -8 30 -8 0 -10 -9 -6 -25 6 -21 3 -25 -18 -25 -40 0 -39 26 2 48
l37 20 30 -29 30 -29 -22 -22z m-183 62 c0 -5 6 -10 14 -10 7 0 28 -15 46 -34
19 -19 40 -32 47 -29 8 3 24 -4 37 -16 26 -24 56 -19 56 9 0 31 19 33 45 3 13
-15 25 -31 25 -35 0 -3 -16 -16 -35 -28 -35 -22 -66 -17 -78 12 -4 10 -8 9
-16 -2 -10 -13 -12 -13 -20 0 -6 8 -13 11 -17 7 -4 -3 -1 -13 5 -21 8 -10 9
-16 1 -21 -14 -9 -72 28 -110 71 -30 35 -31 37 -13 57 13 14 15 21 6 24 -15 5
-17 23 -3 23 6 0 10 -4 10 -10z m310 -160 c12 -28 10 -33 -11 -58 l-24 -27 26
23 c28 24 39 28 39 12 0 -6 11 -28 25 -50 18 -29 21 -40 11 -40 -7 0 -25 -9
-39 -20 l-26 -21 -17 32 c-9 18 -20 37 -25 43 -13 15 -59 86 -59 90 0 2 11 7
25 10 14 4 30 15 37 26 15 23 22 19 38 -20z m-91 -75 c24 -36 42 -67 40 -69
-11 -10 -49 -26 -61 -26 -14 0 -78 99 -78 119 0 17 23 40 40 41 8 0 35 -29 59
-65z m191 -107 c0 -15 -11 -29 -32 -41 -31 -18 -33 -18 -45 -1 -19 26 -16 34
12 34 14 0 28 7 31 15 9 23 34 18 34 -7z m-106 -30 c8 -13 22 -47 32 -75 19
-53 19 -53 -3 -74 -19 -20 -23 -20 -37 -7 -16 16 -66 119 -66 136 0 10 39 41
52 41 4 1 14 -9 22 -21z m159 -141 c11 -33 11 -33 -29 -41 -25 -6 -33 -3 -38
11 -3 10 -8 23 -11 29 -6 12 32 34 54 31 8 -1 19 -15 24 -30z m20 -72 c4 -10
-5 -17 -31 -24 -45 -13 -68 2 -38 25 26 18 62 18 69 -1z m20 -55 c4 -16 -1
-23 -19 -31 -40 -15 -61 -11 -67 13 -8 27 -6 29 35 38 39 8 44 6 51 -20z"/>
<path d="M3750 6561 c0 -12 51 -53 58 -46 6 6 -38 55 -50 55 -4 0 -8 -4 -8 -9z"/>
<path d="M4090 6330 c0 -5 5 -10 10 -10 6 0 10 5 10 10 0 6 -4 10 -10 10 -5 0
-10 -4 -10 -10z"/>
<path d="M4290 6149 c0 -5 5 -7 10 -4 6 3 10 8 10 11 0 2 -4 4 -10 4 -5 0 -10
-5 -10 -11z"/>
<path d="M4354 6086 c-10 -8 -15 -18 -11 -22 4 -4 17 2 30 14 24 25 12 30 -19
8z"/>
<path d="M4384 6019 c-19 -22 -19 -22 3 -10 24 12 39 31 25 31 -5 0 -17 -10
-28 -21z"/>
<path d="M4405 5990 c-10 -11 -13 -20 -8 -20 13 0 38 29 31 35 -3 3 -13 -4
-23 -15z"/>
<path d="M4500 5746 c0 -9 7 -16 16 -16 9 0 14 5 12 12 -6 18 -28 21 -28 4z"/>
<path d="M4510 5630 c0 -5 9 -10 19 -10 11 0 23 5 26 10 4 6 -5 10 -19 10 -14
0 -26 -4 -26 -10z"/>
<path d="M3008 6803 c-10 -2 -18 -9 -18 -15 0 -5 7 -7 16 -4 9 3 30 6 47 7 27
0 29 2 12 9 -22 9 -31 10 -57 3z"/>
<path d="M7647 6791 c-7 -27 4 -124 15 -138 12 -15 58 -17 58 -3 0 6 -5 10
-11 10 -10 0 -39 59 -39 80 0 5 9 10 20 10 11 0 20 7 20 15 0 8 -9 15 -20 15
-13 0 -18 5 -14 15 4 9 0 15 -9 15 -8 0 -17 -8 -20 -19z"/>
<path d="M2868 6788 c5 -5 16 -8 23 -6 8 3 3 7 -10 11 -17 4 -21 3 -13 -5z"/>
<path d="M2935 6791 c-3 -6 3 -9 14 -8 11 0 17 5 15 9 -7 11 -22 10 -29 -1z"/>
<path d="M2820 6779 c0 -5 -5 -7 -12 -3 -7 5 -8 3 -3 -6 6 -9 -2 -11 -33 -5
-24 4 -48 2 -59 -4 -14 -8 -11 -9 15 -5 20 4 32 3 32 -5 0 -6 -10 -10 -22 -8
-16 1 -22 -3 -19 -13 15 -67 13 -85 -16 -102 -35 -22 -18 -23 30 -3 20 8 58
15 85 15 59 0 112 17 112 36 0 10 -6 11 -25 4 -14 -5 -25 -7 -25 -4 0 2 -9 0
-19 -5 -41 -23 -66 69 -27 101 18 15 19 18 4 18 -10 0 -18 -5 -18 -11z m-40
-89 l0 -30 -20 20 c-21 21 -27 35 -11 25 5 -3 12 -1 16 5 11 17 15 11 15 -20z
m30 -2 c0 -5 -4 -8 -10 -8 -5 0 -10 10 -10 23 0 18 2 19 10 7 5 -8 10 -18 10
-22z"/>
<path d="M6527 6784 c-4 -4 -7 -38 -7 -76 0 -54 3 -68 15 -68 12 0 15 13 14
58 0 61 -10 98 -22 86z"/>
<path d="M3093 6749 c1 -19 7 -37 12 -42 6 -4 1 -10 -12 -13 -26 -7 -21 -24 6
-24 14 0 17 8 17 45 -1 24 -6 49 -13 56 -8 8 -11 3 -10 -22z"/>
<path d="M6009 6759 c-11 -11 -18 -27 -15 -36 3 -8 6 -23 6 -34 0 -29 42 -52
74 -40 14 6 26 15 26 21 0 7 -6 7 -21 0 -15 -9 -24 -8 -35 1 -22 18 -17 26 21
33 28 6 35 12 35 29 0 48 -54 63 -91 26z m67 -10 c8 -13 -13 -29 -39 -29 -15
0 -16 3 -7 20 12 22 35 26 46 9z"/>
<path d="M6136 6758 c-22 -31 -20 -74 4 -98 22 -22 60 -26 78 -8 20 20 13 27
-22 21 -43 -7 -62 19 -42 58 9 19 19 24 45 22 45 -2 35 21 -11 25 -28 2 -40
-2 -52 -20z"/>
<path d="M6255 6724 c2 -30 9 -62 16 -70 14 -17 55 -19 65 -3 3 6 15 9 25 6
17 -5 19 1 19 59 0 57 -2 64 -20 64 -16 0 -19 -5 -14 -30 9 -41 -2 -77 -25
-83 -29 -7 -41 12 -41 65 0 35 -4 48 -14 48 -11 0 -13 -13 -11 -56z"/>
<path d="M6410 6715 c0 -51 3 -65 15 -65 10 0 15 11 15 35 0 34 6 43 55 79 19
15 19 15 -7 16 -18 0 -28 -5 -28 -15 0 -8 -4 -15 -10 -15 -5 0 -10 7 -10 15 0
8 -7 15 -15 15 -12 0 -15 -14 -15 -65z"/>
<path d="M6595 6768 c-2 -7 -8 -36 -13 -65 -9 -52 -9 -52 19 -58 16 -4 33 -4
39 0 17 11 11 25 -11 25 -20 0 -21 4 -17 50 5 47 -6 78 -17 48z"/>
<path d="M6747 6773 c-2 -5 -10 -25 -16 -46 -15 -44 -26 -41 -35 8 -4 21 -13
35 -21 35 -19 0 -19 -6 1 -63 20 -59 12 -94 -24 -109 -22 -9 -24 -12 -9 -15
33 -8 48 6 83 84 20 43 40 86 45 96 7 12 5 17 -5 17 -8 0 -17 -3 -19 -7z"/>
<path d="M6853 6765 c-29 -21 -32 -84 -5 -108 22 -20 63 -22 80 -5 19 19 14
30 -8 18 -34 -18 -62 4 -58 48 3 36 5 37 41 37 20 0 36 5 34 10 -6 17 -61 17
-84 0z"/>
<path d="M6972 6767 c-37 -44 -14 -127 37 -127 51 0 79 52 56 106 -12 29 -19
34 -48 34 -19 0 -39 -6 -45 -13z m68 -26 c14 -27 13 -47 -6 -65 -22 -23 -33
-20 -45 11 -20 52 26 100 51 54z"/>
<path d="M7098 6735 c-1 -25 -2 -55 -2 -67 -1 -12 5 -23 12 -25 8 -3 12 9 12
44 0 94 42 96 54 3 9 -65 24 -64 28 3 3 44 6 52 23 52 17 0 20 -8 23 -53 2
-36 7 -52 15 -49 11 4 12 111 0 130 -7 11 -48 8 -62 -5 -11 -10 -14 -10 -18 0
-3 7 -22 12 -44 12 l-39 0 -2 -45z"/>
<path d="M7312 6682 c3 -89 17 -123 28 -65 4 22 11 29 35 31 16 2 35 8 42 14
18 15 16 69 -3 96 -13 19 -23 22 -60 20 l-45 -3 3 -93z m83 54 c19 -29 12 -50
-22 -65 -39 -18 -54 10 -33 63 12 32 35 33 55 2z"/>
<path d="M7533 6768 c-33 -16 -33 -90 -1 -112 31 -22 65 -20 78 4 12 23 8 25
-19 8 -15 -9 -23 -9 -35 1 -25 21 -19 31 17 31 25 0 35 6 44 27 22 46 -25 69
-84 41z m62 -19 c9 -13 6 -16 -28 -24 -20 -6 -27 -4 -27 8 0 24 43 36 55 16z"/>
<path d="M7737 6762 c-39 -43 -1 -126 56 -120 17 2 32 9 35 15 2 9 -5 11 -26
7 -24 -5 -32 -2 -41 15 -11 20 -9 21 29 21 34 0 40 3 40 21 0 55 -57 81 -93
41z m61 -14 c19 -19 15 -25 -18 -30 -24 -4 -30 -1 -30 13 0 15 11 25 31 28 3
1 10 -4 17 -11z"/>
<path d="M7900 6778 c0 -1 9 -27 20 -56 27 -69 26 -106 -2 -125 l-23 -16 22 0
c28 -1 46 26 71 104 11 33 23 68 27 78 5 12 3 17 -7 17 -8 0 -23 -19 -32 -42
-17 -42 -18 -43 -28 -18 -17 43 -24 54 -36 58 -7 2 -12 2 -12 0z"/>
<path d="M8048 6769 c-13 -7 -18 -22 -18 -50 0 -55 15 -79 49 -79 35 0 61 28
61 66 0 59 -46 90 -92 63z m60 -50 c4 -43 -19 -69 -43 -49 -18 15 -20 61 -3
78 22 22 43 9 46 -29z"/>
<path d="M8160 6732 c0 -69 20 -93 76 -90 l44 3 0 68 c0 53 -3 67 -15 67 -11
0 -15 -13 -15 -54 0 -45 -3 -54 -20 -59 -28 -7 -43 25 -35 74 6 35 5 39 -14
39 -18 0 -21 -6 -21 -48z"/>
<path d="M8318 6775 c-2 -2 -1 -33 0 -69 4 -72 22 -92 22 -23 0 51 8 64 38 68
39 7 29 24 -15 26 -23 0 -43 0 -45 -2z"/>
<path d="M3220 6735 c0 -19 5 -35 11 -35 6 0 9 6 6 14 -3 8 -1 16 5 18 14 5 3
38 -12 38 -5 0 -10 -16 -10 -35z"/>
<path d="M2952 6735 c0 -16 2 -22 5 -12 2 9 2 23 0 30 -3 6 -5 -1 -5 -18z"/>
<path d="M3037 6753 c-4 -3 -7 -15 -7 -25 0 -28 25 -21 26 7 2 24 -6 32 -19
18z"/>
<path d="M3157 6738 c-4 -12 -4 -24 -1 -27 8 -9 37 27 30 38 -11 17 -23 13
-29 -11z"/>
<path d="M3281 6749 c1 -8 -1 -22 -6 -32 -9 -21 1 -35 14 -21 15 15 17 57 3
62 -7 2 -12 -2 -11 -9z"/>
<path d="M2854 6736 c-3 -8 -1 -23 5 -33 9 -15 10 -13 11 15 0 34 -7 42 -16
18z"/>
<path d="M3321 6743 c0 -5 4 -17 9 -28 8 -18 9 -17 9 8 1 15 -3 27 -9 27 -5 0
-10 -3 -9 -7z"/>
<path d="M2629 6693 c11 -41 41 -43 41 -4 0 26 -4 31 -24 31 -22 0 -23 -3 -17
-27z"/>
<path d="M3000 6700 c9 -17 8 -20 -10 -21 -33 -2 -38 -4 -47 -13 -5 -5 10 -6
35 -2 44 7 43 8 58 -43 4 -12 8 -11 22 3 16 16 16 18 -2 28 -15 8 -16 12 -5
19 10 6 8 9 -9 9 -15 0 -26 7 -29 20 -3 11 -9 20 -15 20 -5 0 -4 -9 2 -20z"/>
<path d="M3352 6700 c0 -14 2 -19 5 -12 2 6 2 18 0 25 -3 6 -5 1 -5 -13z"/>
<path d="M2540 6700 c-13 -8 -13 -10 1 -10 9 0 24 -15 33 -34 20 -43 20 -56 0
-56 -9 0 -27 -9 -41 -19 -13 -11 -30 -18 -37 -15 -7 3 -19 -2 -26 -11 -18 -22
-39 -18 -50 9 -9 24 -28 42 -36 34 -2 -3 5 -16 16 -31 11 -14 20 -27 20 -30 0
-3 -25 -22 -56 -42 -30 -20 -53 -39 -50 -42 3 -3 20 4 38 16 64 41 99 53 114
40 25 -20 15 -38 -42 -74 -31 -20 -68 -47 -82 -61 -15 -14 -40 -32 -57 -41
-16 -9 -46 -29 -66 -44 -37 -29 -69 -38 -69 -19 0 6 -7 10 -16 10 -15 0 -15
-2 -1 -24 15 -22 14 -25 -43 -81 -51 -51 -61 -57 -75 -45 -13 11 -19 11 -32
-2 -14 -15 -13 -17 6 -27 27 -15 27 -23 -5 -60 -14 -17 -22 -31 -17 -31 5 0
20 15 33 33 88 119 192 214 365 330 39 26 85 61 103 77 32 30 33 32 18 55 -20
30 -20 35 -1 35 8 0 37 14 65 30 57 34 80 38 80 13 0 -19 13 -10 16 12 1 7
-11 18 -27 24 -18 6 -29 17 -30 30 -1 12 -3 26 -4 31 -1 6 -3 15 -4 20 -1 13
-21 13 -41 0z"/>
<path d="M2510 6661 c0 -10 39 -59 40 -49 0 17 -20 58 -30 58 -5 0 -10 -4 -10
-9z"/>
<path d="M2454 6648 c3 -10 9 -24 12 -32 3 -9 -2 -16 -13 -19 -12 -3 -9 -5 10
-6 33 -1 35 17 6 50 -15 17 -19 19 -15 7z"/>
<path d="M2365 6620 c3 -5 8 -10 11 -10 2 0 4 5 4 10 0 6 -5 10 -11 10 -5 0
-7 -4 -4 -10z"/>
<path d="M2840 6600 c0 -5 5 -10 10 -10 6 0 10 5 10 10 0 6 -4 10 -10 10 -5 0
-10 -4 -10 -10z"/>
<path d="M2340 6562 c0 -12 19 -26 26 -19 2 2 -2 10 -11 17 -9 8 -15 8 -15 2z"/>
<path d="M2302 6531 c-10 -6 -10 -10 2 -20 18 -15 37 -6 29 14 -6 17 -12 18
-31 6z"/>
<path d="M2247 6491 c3 -12 10 -21 15 -21 13 0 6 32 -9 37 -7 3 -9 -3 -6 -16z"/>
<path d="M7246 6463 c-11 -70 -7 -175 7 -171 7 3 13 26 15 56 3 47 5 52 26 52
27 0 38 -27 29 -71 -4 -22 -2 -29 11 -29 13 0 16 11 16 51 0 70 -12 90 -50 82
-29 -5 -30 -4 -30 31 0 47 -16 46 -24 -1z"/>
<path d="M2650 6477 c-133 -60 -171 -77 -176 -77 -7 0 -127 -77 -188 -122 -21
-15 -33 -28 -25 -28 8 0 35 17 61 38 89 71 191 124 353 182 35 13 43 19 25 19
-14 0 -36 -5 -50 -12z"/>
<path d="M7376 6481 c-4 -5 3 -15 15 -21 18 -10 20 -9 17 6 -4 20 -23 30 -32
15z"/>
<path d="M2183 6473 c-18 -6 -16 -38 2 -53 21 -17 25 -11 17 26 -4 18 -12 29
-19 27z"/>
<path d="M2715 6456 c-68 -22 -225 -95 -298 -138 -67 -40 -249 -197 -255 -221
-3 -9 -1 -9 5 -1 4 6 31 29 58 50 28 21 58 48 68 61 11 13 44 41 75 62 87 58
189 107 397 192 33 13 -6 9 -50 -5z"/>
<path d="M5850 6458 c0 -6 -7 -20 -17 -30 -9 -11 -11 -18 -5 -18 7 0 12 -17
12 -41 0 -50 15 -79 40 -79 28 0 32 14 9 33 -27 24 -27 87 1 87 11 0 20 5 20
10 0 6 -9 10 -20 10 -13 0 -20 7 -20 20 0 11 -4 20 -10 20 -5 0 -10 -5 -10
-12z"/>
<path d="M6401 6448 c-7 -20 -15 -23 -62 -23 -53 0 -54 0 -54 -30 0 -27 4 -30
33 -33 18 -2 32 -9 32 -16 0 -21 -28 -39 -51 -33 -13 3 -19 1 -16 -6 2 -7 18
-13 35 -15 59 -6 68 64 11 93 -37 20 -39 40 -1 31 15 -4 34 -7 42 -8 22 -2 30
-18 30 -61 0 -30 5 -40 25 -49 19 -9 28 -9 37 0 8 8 7 13 -8 18 -26 10 -34 24
-34 62 0 26 4 32 23 32 20 1 21 2 5 14 -10 7 -18 18 -18 24 0 22 -20 22 -29 0z"/>
<path d="M6931 6451 c-14 -26 -14 -94 1 -126 8 -18 19 -25 40 -25 35 0 34 23
0 28 -18 3 -22 10 -22 44 0 38 1 40 25 34 14 -4 25 -2 25 4 0 10 -14 14 -38
11 -9 -2 -12 4 -7 18 8 26 -11 36 -24 12z"/>
<path d="M2215 6394 c-69 -62 -69 -74 1 -14 49 43 71 47 66 12 -4 -27 12 -36
29 -16 11 14 11 18 -4 29 -9 7 -17 17 -17 23 0 26 -19 17 -75 -34z"/>
<path d="M3116 6441 c-2 -3 -1 -42 4 -86 l7 -80 2 79 1 79 75 -6 c143 -13 357
-79 491 -154 81 -44 197 -115 217 -131 9 -8 17 -11 17 -5 0 14 -24 33 -103 82
-155 96 -371 191 -477 209 -74 13 -229 22 -234 13z"/>
<path d="M9532 6425 c0 -16 2 -22 5 -12 2 9 2 23 0 30 -3 6 -5 -1 -5 -18z"/>
<path d="M2825 6416 c-144 -49 -189 -68 -244 -104 -31 -21 -81 -50 -111 -66
-65 -34 -81 -46 -75 -56 2 -4 -5 -16 -17 -26 -21 -19 -21 -19 -14 1 4 11 -11
0 -33 -24 -22 -25 -38 -47 -36 -50 3 -2 19 11 35 30 16 19 29 29 30 23 0 -6
-9 -19 -20 -29 -11 -10 -20 -23 -20 -29 1 -16 85 86 93 111 1 4 31 22 67 40
36 18 87 47 115 64 57 36 160 75 225 85 25 4 39 9 32 12 -19 6 -3 22 23 22 13
0 27 5 30 10 9 14 0 12 -80 -14z"/>
<path d="M3070 6364 l0 -77 -49 7 c-30 4 -52 2 -56 -4 -4 -6 17 -10 59 -10 58
0 66 2 66 19 0 10 3 46 6 80 6 52 5 61 -10 61 -13 0 -16 -12 -16 -76z"/>
<path d="M5929 6436 c-8 -8 3 -146 12 -146 5 0 9 15 9 34 0 51 16 86 40 86 11
0 20 5 20 11 0 7 -11 9 -29 6 -15 -3 -32 -2 -38 4 -5 5 -11 7 -14 5z"/>
<path d="M7151 6431 c-20 -13 -22 -129 -3 -136 42 -16 75 9 67 51 -2 10 -4 23
-4 27 -1 5 -11 7 -23 5 -28 -4 -36 -28 -9 -28 29 0 35 -17 11 -30 -29 -15 -40
-5 -40 39 0 49 22 71 48 47 24 -21 37 -8 15 16 -18 20 -40 23 -62 9z"/>
<path d="M7460 6432 c-40 -13 -40 -60 0 -73 17 -6 30 -17 30 -25 0 -9 -11 -14
-30 -14 -16 0 -30 -4 -30 -9 0 -14 37 -23 59 -16 44 13 33 79 -14 91 -39 10
-30 27 11 21 23 -4 34 -2 32 5 -5 15 -39 26 -58 20z"/>
<path d="M2122 6419 c2 -7 10 -15 17 -17 8 -3 12 1 9 9 -2 7 -10 15 -17 17 -8
3 -12 -1 -9 -9z"/>
<path d="M6038 6419 c-13 -7 -18 -23 -18 -54 0 -65 38 -93 91 -65 15 8 19 21
19 58 0 27 -5 53 -12 60 -15 15 -57 15 -80 1z m57 -59 c0 -39 -3 -45 -22 -48
-21 -3 -23 1 -23 41 0 48 6 59 30 55 11 -2 15 -16 15 -48z"/>
<path d="M6150 6421 c0 -5 6 -24 14 -42 28 -69 29 -95 4 -119 l-23 -22 24 4
c26 3 30 9 60 78 30 70 36 110 17 110 -11 0 -16 -9 -16 -28 0 -16 -6 -37 -14
-48 -14 -18 -15 -16 -27 29 -7 26 -19 47 -26 47 -7 0 -13 -4 -13 -9z"/>
<path d="M6493 6418 c-19 -25 -23 -52 -13 -83 21 -64 102 -50 108 17 5 54 -12
78 -52 78 -19 0 -38 -6 -43 -12z m68 -29 c16 -31 -4 -71 -34 -67 -39 5 -37 88
2 88 11 0 25 -10 32 -21z"/>
<path d="M6674 6416 c-11 -29 1 -51 34 -61 40 -11 37 -29 -6 -33 -38 -4 -42
-19 -7 -28 32 -8 67 21 63 50 -2 12 -15 27 -30 34 -38 18 -35 32 8 32 21 0 33
4 29 10 -10 16 -85 12 -91 -4z"/>
<path d="M6799 6414 c-11 -14 -9 -15 24 -9 25 5 37 4 37 -4 0 -6 0 -14 0 -18
0 -4 -6 -8 -13 -9 -6 0 -19 -2 -28 -2 -19 -2 -40 -44 -30 -61 5 -8 26 -11 57
-9 l49 3 -4 50 c-1 28 -8 56 -13 63 -15 17 -63 15 -79 -4z m61 -79 c0 -8 -9
-15 -19 -15 -24 0 -36 16 -19 23 24 10 38 7 38 -8z"/>
<path d="M7023 6423 c-18 -7 -16 -84 3 -111 19 -27 60 -29 74 -3 18 34 12 99
-9 111 -21 10 -47 12 -68 3z m57 -34 c18 -33 9 -64 -20 -64 -20 0 -26 6 -28
28 -7 55 25 79 48 36z"/>
<path d="M7382 6359 c2 -35 7 -64 13 -64 13 0 10 118 -4 123 -9 3 -11 -15 -9
-59z"/>
<path d="M2087 6390 c6 -24 33 -49 33 -31 0 18 -19 51 -29 51 -5 0 -7 -9 -4
-20z"/>
<path d="M2893 6360 c0 -30 2 -43 4 -27 2 15 2 39 0 55 -2 15 -4 2 -4 -28z"/>
<path d="M3156 6402 c-2 -4 45 -16 106 -26 255 -40 473 -149 649 -325 106
-107 144 -157 211 -281 25 -47 62 -109 82 -139 20 -29 36 -59 36 -67 0 -8 5
-14 10 -14 6 0 10 2 10 4 0 13 -120 241 -158 301 -56 88 -259 298 -332 345
-147 94 -335 167 -490 190 -47 6 -92 14 -102 16 -9 3 -19 1 -22 -4z"/>
<path d="M2026 6381 c-3 -5 1 -15 10 -22 9 -8 13 -21 10 -35 -8 -32 9 -38 23
-8 9 21 8 29 -6 49 -19 26 -29 30 -37 16z"/>
<path d="M2770 6350 c-80 -26 -203 -84 -219 -104 -12 -15 -9 -14 20 3 19 11
59 29 89 41 30 11 64 25 75 30 11 5 43 18 70 29 62 25 39 25 -35 1z"/>
<path d="M3170 6346 c0 -9 22 -15 80 -19 123 -10 320 -83 443 -167 25 -16 50
-30 56 -30 23 0 209 -187 259 -261 28 -43 52 -81 52 -85 0 -3 12 -25 28 -48
15 -22 56 -90 92 -149 36 -60 82 -124 103 -143 33 -31 43 -34 100 -35 34 -1
112 -2 172 -4 66 -2 102 0 90 5 -11 5 -67 9 -125 9 -128 1 -173 13 -202 51
-12 17 -27 30 -32 30 -21 0 -73 66 -130 165 -125 214 -150 249 -256 355 -115
116 -132 129 -305 225 -83 46 -322 115 -401 115 -13 0 -24 -6 -24 -14z"/>
<path d="M1972 6343 c-10 -4 -9 -10 5 -25 17 -19 17 -20 0 -29 -24 -14 -21
-26 8 -31 33 -7 39 5 22 39 -8 15 -12 34 -10 41 5 12 -3 14 -25 5z"/>
<path d="M2080 6284 c-118 -115 -149 -148 -168 -188 -12 -24 -33 -54 -46 -68
-24 -23 -76 -116 -76 -135 0 -5 -13 -23 -29 -40 -16 -17 -32 -44 -35 -60 -11
-44 -30 -83 -41 -83 -27 1 -55 14 -55 27 0 9 6 12 18 9 26 -9 64 70 41 85 -10
8 -8 8 10 4 17 -5 22 -4 19 6 -3 8 -14 15 -26 17 -25 4 -28 20 -8 48 14 19 15
19 40 -5 25 -24 26 -24 26 -3 0 12 -8 23 -20 27 -24 8 -25 13 -4 53 18 37 25
39 49 12 10 -11 21 -18 23 -15 3 3 -5 16 -18 30 -18 19 -21 28 -12 37 9 9 16
8 30 -5 10 -9 23 -17 28 -17 5 0 -2 9 -16 19 -22 17 -23 22 -12 46 7 15 10 30
7 33 -6 7 -24 -15 -72 -88 -20 -30 -42 -59 -48 -65 -22 -19 -43 -61 -79 -157
-71 -190 -121 -466 -113 -631 2 -59 9 -113 15 -120 10 -12 18 -59 28 -157 19
-196 101 -399 260 -640 179 -273 562 -534 889 -605 44 -10 94 -22 110 -28 47
-15 402 -21 497 -8 160 23 339 81 510 166 135 68 181 98 155 103 -19 4 -47 51
-47 81 0 11 30 47 72 85 71 66 71 66 92 48 12 -11 31 -25 44 -31 25 -13 29
-39 7 -47 -8 -4 -27 8 -46 30 -17 20 -35 36 -40 36 -20 0 -7 -27 28 -57 31
-25 36 -34 26 -44 -10 -10 -20 -5 -48 29 -22 25 -41 39 -50 35 -24 -9 -17 -29
20 -57 41 -31 44 -46 12 -46 -16 0 -26 9 -34 30 -13 35 -22 37 -53 12 -20 -16
-21 -21 -9 -40 8 -13 24 -25 37 -28 12 -4 22 -11 22 -16 0 -13 45 16 126 82
155 128 324 362 424 590 59 134 58 127 3 138 -26 6 -124 12 -216 13 l-169 2
-62 -62 c-34 -34 -65 -59 -68 -56 -3 3 -23 -17 -43 -44 -21 -28 -74 -79 -118
-113 -44 -35 -105 -84 -136 -110 -75 -64 -168 -112 -309 -159 -64 -21 -119
-39 -122 -39 -3 0 -6 75 -7 168 l-3 167 128 23 c94 17 146 32 204 60 43 21 70
30 62 21 -28 -31 -128 -68 -249 -92 l-120 -24 -1 -39 c-1 -22 1 -55 4 -75 4
-34 6 -36 31 -30 14 4 26 13 25 19 -1 7 -2 24 -2 38 -2 18 -6 24 -16 21 -17
-7 -36 11 -36 34 0 13 15 20 68 28 191 33 288 75 377 165 130 129 173 329 101
467 -32 63 -33 69 0 38 40 -38 55 -85 55 -179 1 -143 -44 -245 -154 -353 -70
-68 -147 -104 -337 -157 l-45 -13 30 -13 c49 -21 152 -37 191 -30 27 6 38 14
45 35 5 15 50 63 100 106 49 43 87 80 85 82 -6 6 -86 -48 -86 -59 0 -4 -10
-13 -23 -19 -13 -6 -30 -22 -39 -36 -9 -15 -18 -21 -22 -15 -7 12 -1 19 89 92
66 54 121 124 163 206 11 22 41 63 67 92 52 58 51 76 -2 66 -32 -6 -35 -5 -30
10 4 10 7 21 7 26 0 10 22 19 85 35 49 13 50 13 13 14 -38 1 -42 3 -200 135
-78 65 -205 136 -244 136 -11 0 -4 10 22 31 51 40 88 95 113 171 25 75 26 114
4 170 -18 48 -75 124 -119 161 -64 54 -168 91 -287 103 l-69 6 2 122 c2 66 2
137 1 156 l-1 35 -95 1 -95 1 0 -159 0 -159 -67 3 -68 3 0 155 0 155 -30 3
c-16 2 -58 1 -93 -3 l-63 -7 5 -149 c5 -115 3 -151 -6 -154 -7 -3 -96 -6 -198
-8 l-185 -2 -3 -78 c-3 -69 -7 -84 -36 -130 -45 -71 -95 -171 -117 -236 l-19
-55 25 -36 c13 -19 37 -43 53 -52 27 -16 30 -16 45 -1 15 16 13 20 -29 61 -36
34 -49 41 -55 31 -7 -11 -9 -10 -9 3 0 27 45 141 79 200 17 29 38 70 47 91
l16 37 63 0 c34 0 83 -3 109 -6 l46 -7 0 -529 0 -528 -26 -10 c-14 -6 -54 -10
-88 -10 -72 0 -65 9 -91 -114 -9 -38 -12 -73 -8 -77 5 -4 80 -9 168 -10 88 -2
173 -5 188 -7 l28 -4 -2 -152 -2 -151 98 -5 c66 -3 99 -1 102 6 2 6 3 79 1
163 l-3 151 62 0 63 0 -6 -44 c-4 -25 -3 -97 1 -161 l7 -117 85 4 c92 5 123
-7 45 -18 -46 -6 -48 -7 -44 -35 5 -35 18 -36 137 -14 114 20 156 35 284 100
112 56 149 66 93 26 -102 -72 -304 -144 -446 -159 -44 -4 -71 -12 -74 -20 -10
-32 206 10 357 68 91 35 206 108 206 131 0 8 17 26 37 41 42 31 74 77 40 59
-10 -5 -25 -17 -32 -26 -34 -42 -303 -165 -412 -189 -83 -18 -178 -28 -178
-18 0 4 52 17 115 29 176 34 336 106 428 191 35 33 77 68 93 78 16 10 42 31
58 46 17 15 33 28 37 28 16 0 -5 -40 -33 -65 -24 -21 -27 -29 -17 -36 18 -11
39 10 54 55 7 20 32 64 56 100 34 49 45 59 47 44 2 -10 -2 -27 -10 -37 -61
-84 -79 -113 -76 -123 2 -6 18 9 36 33 67 92 92 116 92 90 0 -11 -77 -109
-130 -166 -21 -22 -41 -50 -45 -63 -8 -26 -127 -126 -135 -113 -3 5 -34 -10
-70 -33 -119 -78 -276 -134 -424 -151 -33 -4 -70 -11 -83 -16 -23 -8 -23 -8
-23 70 0 74 -1 79 -20 74 -11 -3 -20 -12 -20 -20 0 -8 5 -11 11 -7 7 4 10 -17
7 -70 -3 -73 -2 -77 17 -72 11 3 70 12 130 21 61 9 127 20 148 26 63 17 189
73 249 112 32 20 73 43 92 51 41 17 112 80 131 116 7 14 27 39 43 56 16 16 52
58 81 94 28 36 56 71 62 78 8 9 15 10 22 3 7 -7 -5 -26 -37 -62 -25 -28 -54
-65 -63 -80 -10 -16 -20 -29 -24 -29 -3 0 -28 -28 -55 -63 -64 -82 -69 -85
-209 -166 -194 -112 -266 -136 -488 -167 -257 -36 -517 9 -761 133 -69 35
-254 157 -333 220 -81 65 -229 314 -286 484 -70 208 -71 595 -2 835 36 124
109 282 174 377 32 47 53 83 47 81 -23 -9 -99 -123 -147 -222 -87 -179 -106
-247 -135 -467 -45 -349 31 -676 223 -965 74 -110 99 -138 173 -187 25 -16 79
-55 122 -85 86 -63 241 -144 338 -179 36 -12 90 -36 120 -52 102 -53 346 -73
525 -41 143 25 234 53 324 100 46 24 86 43 87 41 7 -7 -93 -76 -136 -95 -155
-69 -509 -104 -675 -66 -39 8 -99 22 -135 29 -97 20 -190 49 -237 73 -53 27
-53 27 -53 -3 0 -16 6 -25 15 -25 8 0 15 -7 15 -16 0 -12 -6 -15 -22 -10 -13
3 -33 6 -45 6 -12 0 -28 6 -35 13 -7 8 -33 26 -56 41 -37 23 -41 29 -32 46 6
11 18 20 27 20 13 0 13 3 3 15 -23 27 -6 24 53 -11 32 -19 62 -34 68 -34 5 0
39 -14 75 -30 35 -17 79 -33 97 -37 17 -3 44 -12 59 -19 15 -8 33 -14 40 -14
20 1 -32 28 -77 41 -77 21 -331 156 -425 226 -108 80 -198 170 -228 229 -11
21 -42 76 -70 121 -27 44 -62 112 -76 149 -15 38 -36 90 -46 115 -30 71 -51
209 -57 369 -7 174 20 388 66 522 29 84 103 244 121 262 15 15 12 36 -5 30 -8
-4 -15 -14 -15 -24 0 -10 -7 -20 -15 -24 -9 -3 -15 0 -15 9 0 8 -9 19 -21 26
-21 11 -21 11 -1 32 11 12 29 41 40 63 12 23 34 53 50 66 16 14 32 33 36 44 3
10 37 44 76 74 38 30 71 61 74 68 11 25 -20 9 -64 -34z m-198 -406 c-43 -70
-62 -109 -62 -126 0 -33 -44 -122 -63 -128 -42 -13 -50 59 -15 131 22 45 32
53 43 35 10 -17 25 -11 25 10 0 11 -7 20 -15 20 -20 0 -19 9 6 72 31 80 37 84
72 50 l30 -30 -21 -34z m1364 -154 c61 -31 130 -99 140 -139 4 -14 4 -47 1
-71 -6 -61 -48 -112 -122 -149 -57 -29 -66 -30 -185 -30 l-125 0 0 195 c0 107
-3 200 -7 206 -15 22 9 26 125 21 103 -5 125 -9 173 -33z m-1601 -114 c17 -7
15 -9 -12 -9 -18 -1 -33 4 -33 9 0 12 17 12 45 0z m96 -16 c20 -10 28 -21 25
-32 -2 -9 -7 -35 -11 -57 -9 -56 -27 -77 -62 -73 -23 2 -29 8 -31 35 -4 37 25
143 39 143 6 0 23 -7 40 -16z m-11 -232 c0 -20 -3 -68 -7 -105 -5 -54 -9 -67
-21 -65 -9 2 -20 19 -26 38 -8 30 -10 32 -14 13 -2 -13 -8 -23 -14 -23 -7 0
-9 22 -5 66 4 58 8 69 37 94 39 35 50 31 50 -18z m-102 9 c4 -11 -3 -13 -28
-7 -21 4 -39 1 -48 -6 -13 -11 -14 -10 -3 10 10 18 19 22 43 20 17 -2 34 -9
36 -17z m-10 -31 c8 0 12 -19 12 -60 l0 -60 -35 5 c-49 6 -55 11 -55 51 0 50
17 77 43 70 12 -3 28 -6 35 -6z m-19 -160 c17 0 31 -2 31 -4 0 -2 3 -12 7 -22
5 -14 2 -16 -28 -10 -80 16 -89 19 -89 30 0 20 11 26 31 16 10 -6 31 -10 48
-10z m125 -18 c2 -4 7 -44 11 -89 l7 -81 -32 -7 c-22 -5 -35 -3 -40 5 -11 17
-22 134 -14 153 8 21 58 35 68 19z m1523 -32 c176 -23 281 -149 229 -273 -17
-41 -101 -117 -138 -124 -15 -3 -25 -9 -22 -14 3 -5 2 -9 -3 -9 -4 0 -19 -3
-33 -5 -22 -5 -23 -4 -5 5 16 8 14 9 -13 4 -18 -3 -63 -10 -100 -14 l-67 -9
80 3 c74 3 76 3 33 -6 -30 -6 -86 -7 -150 -2 l-101 9 -1 222 -1 223 110 0 c61
0 143 -5 182 -10z m-1605 -125 c4 -50 12 -100 18 -113 15 -34 12 -44 -8 -31
-11 7 -31 9 -45 5 -31 -7 -36 -39 -13 -71 13 -18 15 -18 40 -2 14 10 26 25 26
35 1 33 30 -19 30 -53 0 -42 18 -95 41 -120 10 -11 18 -23 18 -28 1 -4 8 -23
16 -43 8 -20 15 -40 15 -44 0 -8 -80 -53 -85 -48 -12 13 -95 197 -95 210 0 16
20 28 46 28 22 0 16 -28 -6 -32 -26 -4 -27 -22 -3 -26 33 -4 45 12 37 53 -6
35 -8 37 -37 31 -17 -4 -34 -11 -38 -17 -9 -15 -14 -3 -27 56 -17 82 -21 125
-11 125 5 0 9 -4 9 -10 0 -5 11 -10 25 -10 31 0 33 20 3 21 l-23 0 23 11 c12
6 22 15 22 20 0 4 -10 8 -22 8 -19 0 -20 -2 -8 -10 12 -8 9 -10 -12 -10 -43 0
-34 25 15 41 l42 14 -47 3 c-40 3 -47 6 -52 28 -11 41 1 62 37 67 62 8 61 9
69 -88z m117 -113 c33 -110 35 -125 14 -138 -14 -9 -23 -9 -36 1 -17 12 -57
124 -57 160 0 17 26 39 52 44 4 0 16 -30 27 -67z m-116 -57 c-3 -13 -53 -20
-53 -7 0 15 13 23 35 20 11 -2 19 -7 18 -13z m203 -176 c37 -75 42 -104 18
-113 -27 -10 -30 -8 -66 48 -25 39 -34 63 -33 89 5 78 33 70 81 -24z m2434 37
c0 -8 -5 -18 -10 -21 -6 -4 -26 -37 -44 -73 -36 -72 -122 -183 -224 -293 -43
-45 -57 -66 -43 -62 20 5 87 77 165 178 21 28 46 57 55 65 25 25 61 78 61 92
0 7 9 31 20 53 20 40 21 29 5 -35 -3 -14 4 -2 17 26 30 67 45 84 74 84 18 0
24 -5 24 -23 0 -26 -65 -167 -77 -167 -5 0 -18 6 -29 14 -18 13 -22 11 -44
-17 -14 -17 -32 -39 -41 -47 -8 -9 -37 -47 -63 -84 -45 -62 -135 -151 -154
-151 -8 0 -73 -45 -167 -116 -61 -46 -267 -140 -367 -168 -114 -32 -227 -51
-303 -51 -114 0 -286 21 -343 42 -68 25 -61 34 10 13 29 -8 100 -18 158 -21
58 -3 123 -7 145 -8 49 -5 205 18 307 44 102 26 221 79 343 153 119 71 126 77
179 143 88 109 190 230 207 244 9 8 34 47 55 85 51 97 63 115 74 115 6 0 10
-6 10 -14z m214 -12 c19 -7 20 -22 6 -60 -10 -26 -11 -26 -31 -8 -18 16 -19
20 -5 30 20 14 20 24 0 24 -15 0 -36 -40 -49 -92 -6 -22 -2 -27 24 -36 31 -11
39 -29 22 -47 -5 -6 -19 -35 -31 -65 -33 -86 -110 -198 -110 -162 0 5 -8 17
-18 28 -29 31 -34 86 -11 123 23 38 44 42 27 6 -14 -30 -13 -31 35 -38 34 -5
39 -3 47 19 5 13 7 38 3 55 -5 28 -4 31 15 25 11 -4 23 -3 26 2 7 12 -11 27
-43 37 -23 7 -24 6 -18 -34 5 -42 -3 -50 -31 -32 -10 6 -5 24 21 82 19 41 40
91 46 112 13 38 34 47 75 31z m-114 -83 c0 -5 -9 -19 -21 -32 l-20 -24 17 33
c19 33 24 38 24 23z m84 -7 c9 -3 16 -12 16 -20 0 -21 -28 -17 -40 6 -11 21
-4 25 24 14z m-2497 -154 l43 -74 -28 -12 c-25 -11 -29 -9 -56 19 -26 30 -72
115 -64 121 14 12 45 25 53 23 6 -2 29 -37 52 -77z m2308 56 c16 -24 15 -27
-18 -78 -41 -64 -88 -109 -94 -90 -3 6 -11 12 -19 12 -8 0 -14 3 -14 8 0 14
116 172 126 172 2 0 11 -11 19 -24z m-2495 -18 c0 -9 3 -8 10 2 11 18 11 18
91 -99 35 -52 69 -100 74 -108 11 -15 -4 -29 -45 -40 -14 -3 -28 -10 -31 -16
-8 -11 -32 1 -24 12 2 5 -6 18 -20 31 -27 26 -23 50 10 50 28 0 53 26 38 41
-11 11 -65 -11 -78 -31 -10 -17 -25 -11 -25 9 0 11 9 22 19 26 26 8 44 32 35
46 -5 8 -9 7 -16 -5 -5 -9 -15 -16 -23 -16 -7 0 -16 -6 -18 -12 -4 -10 -8 -9
-16 2 -8 12 -5 17 17 24 32 10 52 25 52 38 0 6 -11 3 -25 -6 -34 -22 -45 -20
-15 4 14 10 22 22 18 26 -4 3 -14 -1 -23 -10 -9 -9 -23 -16 -30 -16 -9 0 -12
-6 -9 -15 11 -27 -4 -16 -25 21 -12 19 -21 37 -21 39 0 3 27 9 68 14 6 0 12
-5 12 -11z m1578 -105 c-4 -22 -22 -20 -26 1 -2 10 3 16 13 16 10 0 15 -7 13
-17z m-1258 -98 c30 -30 49 -55 42 -55 -7 0 -18 -11 -24 -25 -6 -14 -15 -25
-20 -25 -12 0 -108 102 -108 114 0 14 31 46 44 46 7 0 36 -25 66 -55z m2041
28 c11 -28 5 -36 -74 -114 l-37 -36 -26 30 -25 30 38 31 c21 17 51 43 68 58
38 34 43 34 56 1z m126 11 c3 -9 -5 -27 -22 -44 -17 -18 -25 -35 -21 -45 9
-24 39 -14 46 14 7 32 26 38 33 11 6 -23 -12 -50 -73 -107 -40 -38 -48 -40
-57 -15 -3 9 -15 27 -25 39 -19 21 -19 22 -1 49 l18 28 3 -27 c4 -31 38 -55
54 -39 7 7 4 19 -11 37 -22 29 -21 30 13 82 23 36 34 41 43 17z m-2255 -110
l27 -27 -44 -33 c-50 -39 -61 -41 -70 -15 -3 10 -14 26 -25 36 -23 21 -26 40
-5 32 8 -4 17 -2 20 3 3 5 12 7 19 4 7 -3 16 2 19 10 9 23 27 20 59 -10z
m1979 -40 c10 -9 19 -21 19 -25 0 -5 -30 -31 -66 -59 l-67 -50 -33 21 c-37 23
-46 13 -14 -16 11 -10 20 -22 20 -27 0 -8 -116 -68 -133 -68 -5 0 -17 10 -27
23 -18 22 -18 22 8 45 15 12 75 56 134 97 59 41 113 85 120 98 l13 22 3 -21
c2 -12 12 -30 23 -40z m-1709 -52 c28 -26 27 -46 -3 -63 -15 -7 -29 -4 -62 15
-56 33 -97 77 -78 84 7 2 21 12 30 22 15 16 18 16 51 -8 19 -14 47 -36 62 -50z
m1831 39 c-4 -15 3 -22 32 -31 25 -8 35 -16 31 -27 -3 -8 -6 -17 -6 -19 0 -15
-32 1 -50 26 -13 18 -26 27 -35 23 -20 -7 -19 6 2 29 21 23 32 23 26 -1z
m-1984 -61 c20 -17 43 -36 51 -43 8 -7 23 -17 35 -22 25 -13 26 -39 3 -43 -12
-2 -21 6 -28 22 -6 16 -17 26 -29 26 -10 0 -21 7 -25 15 -3 9 -16 19 -28 24
-28 10 -48 -12 -40 -43 5 -20 4 -20 -21 3 -28 25 -27 32 6 69 26 29 32 28 76
-8z m-5 -82 c-9 -30 -10 -32 -30 -24 -16 6 -15 8 2 26 26 26 37 25 28 -2z
m114 -89 c5 3 12 18 16 34 8 33 13 33 48 2 l28 -24 -21 -35 c-12 -20 -23 -36
-25 -36 -10 0 -154 102 -154 110 0 23 29 14 62 -20 20 -21 40 -35 46 -31z
m1447 25 c24 -18 21 -20 -70 -65 -77 -37 -90 -37 -90 1 0 26 5 32 35 40 20 5
44 16 55 24 25 19 45 19 70 0z m185 7 c0 -5 12 -24 26 -41 25 -29 25 -33 11
-47 -14 -14 -17 -12 -34 22 -10 21 -22 37 -28 37 -19 -1 -15 -20 10 -50 28
-33 31 -42 14 -42 -7 0 -27 17 -45 38 -24 28 -35 34 -44 26 -9 -9 -8 -19 4
-42 10 -20 12 -33 6 -37 -13 -8 -45 65 -33 75 16 15 98 69 106 70 4 0 7 -4 7
-9z m-1277 -17 c100 -30 100 -30 81 -59 -19 -29 -43 -31 -105 -10 -58 20 -75
42 -52 67 19 22 13 21 76 2z m-240 -39 c-15 -19 -29 -31 -31 -25 -5 13 30 59
46 60 8 0 1 -14 -15 -35z m67 -3 c63 -32 62 -29 39 -75 -12 -23 -22 -43 -23
-44 -3 -3 -136 67 -136 72 0 8 87 -20 103 -34 16 -13 19 -13 27 -1 12 18 13
40 2 40 -4 0 -14 -6 -21 -12 -11 -11 -12 -7 -7 22 7 33 6 34 -9 16 -8 -11 -15
-24 -15 -30 0 -6 -4 -6 -11 1 -10 10 -2 63 10 63 4 0 22 -8 41 -18z m383 -17
c33 -7 67 -21 76 -29 10 -9 20 -14 23 -11 8 8 418 14 418 6 0 -3 -12 -18 -25
-33 -22 -26 -30 -28 -94 -28 -67 0 -71 1 -77 25 -7 28 -24 24 -24 -6 0 -10 -6
-19 -12 -20 -7 0 -43 -2 -80 -5 -67 -5 -68 -5 -68 21 0 27 -9 32 -28 13 -10
-10 -15 -10 -22 2 -6 9 -10 10 -10 3 0 -17 -39 -27 -64 -15 -11 6 -42 16 -68
23 -51 14 -54 19 -38 50 13 22 17 23 93 4z m699 -2 c5 -25 -29 -49 -82 -57
-25 -4 -55 -10 -68 -13 -21 -5 -22 -3 -16 23 9 39 17 46 61 54 70 14 101 11
105 -7z m-952 -38 c7 -8 19 -15 26 -15 17 0 19 -16 3 -25 -6 -4 -16 1 -23 11
-18 24 -36 9 -36 -29 0 -18 -5 -39 -11 -47 -7 -11 -9 1 -5 43 7 79 19 95 46
62z m1146 -26 l18 -42 -24 -16 c-24 -16 -94 -41 -117 -41 -16 0 -18 96 -3 105
6 4 10 -10 10 -34 0 -22 5 -43 11 -46 17 -11 20 0 8 34 -14 41 -4 53 13 15 15
-34 26 -44 44 -37 14 5 11 10 -28 54 -17 18 -16 19 10 33 37 21 37 21 58 -25z
m-1022 -21 l26 -11 -22 -39 c-12 -21 -25 -38 -30 -38 -12 0 -10 44 3 57 6 6 8
16 4 23 -11 19 -35 -9 -35 -41 0 -18 -5 -29 -14 -29 -11 0 -12 8 -5 38 5 20 9
40 9 45 0 11 36 9 64 -5z m867 -1 c-8 -10 -7 -22 2 -46 10 -27 9 -33 -3 -41
-8 -5 -20 -10 -26 -10 -14 0 -13 52 1 62 15 11 0 19 -19 12 -14 -5 -17 -16
-14 -45 5 -52 -17 -52 -26 0 -6 39 -6 39 -35 28 -23 -8 -30 -19 -35 -49 -6
-34 -9 -38 -35 -38 -26 0 -30 4 -36 41 -4 22 -5 42 -3 43 3 3 212 52 232 55 5
0 3 -5 -3 -12z m-965 -52 c-3 -8 -12 -15 -21 -15 -14 0 -14 3 2 24 18 24 30
18 19 -9z m200 20 c23 -17 3 -20 -27 -4 -18 9 -22 6 -32 -20 -12 -32 -37 -50
-37 -27 0 18 46 66 63 66 7 0 22 -7 33 -15z m58 -17 c-4 -7 -10 -28 -13 -47
-9 -49 -32 -54 -25 -4 8 55 12 63 29 63 10 0 13 -5 9 -12z m201 -29 c-8 -15
-15 -36 -15 -47 0 -16 -9 -19 -54 -21 -42 -1 -55 2 -60 15 -10 25 1 30 24 9
11 -10 21 -15 21 -12 5 25 4 34 -5 45 -7 10 -3 13 20 10 16 -2 32 -10 36 -18
5 -11 7 -9 7 6 1 35 -49 46 -81 17 -18 -16 -24 -8 -10 14 8 13 53 20 99 14 32
-3 32 -3 18 -32z m-139 16 c-13 -10 -17 -23 -14 -45 3 -19 1 -29 -6 -27 -20 6
-19 58 1 73 10 7 23 13 28 13 6 0 2 -6 -9 -14z m297 8 c-7 -2 -19 -2 -25 0 -7
3 -2 5 12 5 14 0 19 -2 13 -5z m67 -15 c0 -19 -2 -20 -10 -8 -13 19 -13 30 0
30 6 0 10 -10 10 -22z m-503 4 c6 -4 13 -16 15 -27 2 -15 -2 -19 -17 -17 -28
5 -37 16 -29 35 7 19 13 20 31 9z m353 -42 c0 -39 -3 -50 -16 -50 -12 0 -15 6
-10 23 3 12 6 34 6 50 0 15 5 27 10 27 6 0 10 -22 10 -50z m-40 0 c0 -33 -3
-40 -19 -40 -19 0 -19 1 -3 40 9 22 18 40 20 40 1 0 2 -18 2 -40z m354 24 c22
-21 20 -34 -4 -34 -15 0 -20 7 -20 25 0 29 3 30 24 9z m-122 -19 c3 -13 1 -22
-3 -19 -9 5 -13 44 -5 44 2 0 6 -11 8 -25z m-104 9 c14 -4 22 -14 22 -29 0
-18 -7 -24 -30 -27 -36 -5 -40 -3 -40 34 0 29 8 32 48 22z"/>
<path d="M3028 5733 c12 -2 32 -2 45 0 12 2 2 4 -23 4 -25 0 -35 -2 -22 -4z"/>
<path d="M3138 5723 c12 -2 32 -2 45 0 12 2 2 4 -23 4 -25 0 -35 -2 -22 -4z"/>
<path d="M2997 5704 c-16 -17 -2 -19 92 -16 90 3 103 1 149 -22 65 -33 82 -58
82 -121 0 -61 -26 -107 -77 -137 -20 -12 -31 -24 -25 -26 19 -6 99 45 122 79
55 76 25 165 -70 210 -44 21 -77 27 -161 33 -58 3 -108 3 -112 0z"/>
<path d="M3025 5650 c3 -5 8 -10 11 -10 2 0 4 5 4 10 0 6 -5 10 -11 10 -5 0
-7 -4 -4 -10z"/>
<path d="M3223 5652 c-8 -5 -9 -13 -3 -22 7 -12 10 -12 16 3 8 21 3 29 -13 19z"/>
<path d="M3013 5563 c9 -2 23 -2 30 0 6 3 -1 5 -18 5 -16 0 -22 -2 -12 -5z"/>
<path d="M3246 5484 c-8 -21 -8 -21 9 -28 11 -4 15 1 15 19 0 28 -15 33 -24 9z"/>
<path d="M3020 5450 c-8 -5 -10 -10 -5 -10 6 0 17 5 25 10 8 5 11 10 5 10 -5
0 -17 -5 -25 -10z"/>
<path d="M3148 5408 c-46 -10 -59 -20 -39 -32 11 -7 101 25 101 36 0 9 2 9
-62 -4z"/>
<path d="M3028 5393 c7 -3 16 -2 19 1 4 3 -2 6 -13 5 -11 0 -14 -3 -6 -6z"/>
<path d="M2995 5355 c26 -9 105 -12 105 -4 0 5 -26 9 -57 8 -32 0 -53 -2 -48
-4z"/>
<path d="M3143 5353 c9 -2 23 -2 30 0 6 3 -1 5 -18 5 -16 0 -22 -2 -12 -5z"/>
<path d="M1560 5310 c0 -5 7 -10 15 -10 8 0 15 -5 15 -11 0 -6 -9 -9 -20 -6
-29 8 -25 -17 6 -38 26 -17 27 -17 21 4 -3 11 -1 24 4 27 13 8 -9 44 -26 44
-8 0 -15 -4 -15 -10z"/>
<path d="M2985 5110 c-3 -4 73 -9 169 -12 130 -4 180 -9 204 -21 18 -8 32 -12
32 -8 0 20 -65 34 -175 37 -66 3 -144 6 -173 8 -29 1 -55 0 -57 -4z"/>
<path d="M3003 5074 c-9 -4 -13 -37 -13 -113 l0 -107 53 7 c28 4 74 8 100 8
29 1 46 5 42 11 -3 6 1 10 9 10 10 0 16 -9 16 -22 0 -13 3 -34 7 -46 6 -23 5
-24 -66 -20 -52 2 -71 0 -71 -9 0 -10 20 -11 78 -7 42 3 82 7 88 9 12 4 25
101 17 122 -3 7 -18 13 -33 13 -24 0 -29 5 -38 43 l-11 42 5 -46 5 -45 -63 1
c-116 3 -108 -2 -108 61 l0 56 185 -7 c102 -4 185 -4 185 -1 0 4 -17 14 -37
23 -27 11 -81 17 -188 19 -82 2 -156 1 -162 -2z m155 -184 c7 -3 -20 -6 -60
-5 -88 2 -88 2 -88 15 0 11 124 3 148 -10z"/>
<path d="M3423 4999 c10 -26 9 -32 -4 -40 -11 -5 -19 -29 -24 -65 -4 -32 -9
-63 -12 -71 -12 -31 -100 -57 -235 -69 -49 -4 -68 -10 -68 -20 0 -19 53 -18
156 2 90 18 167 55 197 96 27 36 34 116 13 156 -21 42 -37 50 -23 11z"/>
<path d="M3068 5003 c6 -2 18 -2 25 0 6 3 1 5 -13 5 -14 0 -19 -2 -12 -5z"/>
<path d="M3070 4970 c20 -13 33 -13 25 0 -3 6 -14 10 -23 10 -15 0 -15 -2 -2
-10z"/>
<path d="M3289 4897 c-2 -49 -1 -91 2 -92 3 -2 16 2 29 8 23 12 30 27 43 94 6
31 5 32 -22 27 -25 -5 -30 -2 -39 22 -8 24 -10 14 -13 -59z"/>
<path d="M3002 4820 c14 -4 32 -11 40 -16 10 -6 10 -4 -1 9 -7 9 -25 17 -40
16 l-26 -1 27 -8z"/>
<path d="M2980 4779 c0 -5 5 -7 10 -4 6 3 10 8 10 11 0 2 -4 4 -10 4 -5 0 -10
-5 -10 -11z"/>
<path d="M1550 5047 c0 -8 14 -13 35 -14 30 -1 34 1 24 13 -14 18 -59 18 -59
1z"/>
<path d="M1666 4645 c-11 -8 -15 -15 -9 -15 19 0 43 12 43 21 0 13 -12 11 -34
-6z"/>
<path d="M1674 4606 c-25 -19 -14 -29 19 -17 22 9 28 7 37 -9 8 -15 6 -22 -12
-34 -23 -16 -13 -21 16 -10 19 7 20 24 4 59 -13 28 -35 32 -64 11z"/>
<path d="M1680 4560 c0 -5 5 -10 10 -10 6 0 10 5 10 10 0 6 -4 10 -10 10 -5 0
-10 -4 -10 -10z"/>
<path d="M4301 4363 c-1 -13 3 -23 9 -23 5 0 7 -7 4 -15 -8 -20 20 -20 37 1
10 13 10 17 -2 25 -8 5 -19 9 -26 9 -6 0 -14 6 -16 13 -3 6 -6 2 -6 -10z"/>
<path d="M1750 4460 c-8 -5 -12 -12 -9 -15 4 -3 12 1 19 10 14 17 11 19 -10 5z"/>
<path d="M1880 4295 c0 -8 9 -19 20 -25 17 -9 20 -8 20 9 0 10 -7 22 -16 25
-22 8 -24 8 -24 -9z"/>
<path d="M1850 4277 c0 -8 7 -20 15 -27 12 -10 15 -10 15 3 0 8 -7 20 -15 27
-12 10 -15 10 -15 -3z"/>
<path d="M1953 4190 c-13 -5 -23 -14 -23 -19 0 -8 30 -25 35 -19 5 5 16 48 13
47 -2 0 -13 -4 -25 -9z"/>
<path d="M3735 4020 c-3 -6 1 -7 9 -4 18 7 21 14 7 14 -6 0 -13 -4 -16 -10z"/>
<path d="M2260 3921 c0 -6 5 -13 10 -16 6 -3 10 1 10 9 0 9 -4 16 -10 16 -5 0
-10 -4 -10 -9z"/>
<path d="M3650 3818 c0 -7 9 -24 20 -38 16 -21 20 -22 20 -7 0 23 -18 57 -30
57 -6 0 -10 -6 -10 -12z"/>
<path d="M3343 3740 c-15 -6 -20 -15 -16 -30 8 -30 23 -35 24 -8 1 19 3 18 9
-7 7 -28 8 -27 9 13 0 23 0 42 -1 41 -2 0 -13 -4 -25 -9z"/>
<path d="M2971 3674 c0 -11 3 -14 6 -6 3 7 2 16 -1 19 -3 4 -6 -2 -5 -13z"/>
<path d="M3170 3670 c0 -5 7 -10 16 -10 8 0 12 5 9 10 -3 6 -10 10 -16 10 -5
0 -9 -4 -9 -10z"/>
<path d="M2792 6310 c-23 -11 -42 -22 -42 -25 0 -3 10 -1 21 6 12 6 34 8 50 5
21 -4 29 -2 29 9 0 23 -14 25 -58 5z"/>
<path d="M7550 6315 c0 -8 7 -15 15 -15 8 0 15 7 15 15 0 8 -7 15 -15 15 -8 0
-15 -7 -15 -15z"/>
<path d="M1921 6291 l-22 -30 27 -31 c15 -16 31 -30 36 -30 12 0 -11 42 -31
57 -14 10 -14 13 3 32 11 12 17 24 14 27 -3 3 -15 -8 -27 -25z"/>
<path d="M2441 6280 c-75 -40 -116 -70 -94 -70 7 0 15 5 18 10 4 6 42 28 86
50 72 37 92 50 72 50 -5 0 -41 -18 -82 -40z"/>
<path d="M2890 6290 c0 -5 5 -10 11 -10 5 0 7 5 4 10 -3 6 -8 10 -11 10 -2 0
-4 -4 -4 -10z"/>
<path d="M3168 6292 c7 -5 41 -10 76 -11 160 -5 354 -98 568 -274 98 -80 147
-136 187 -215 12 -23 39 -66 61 -95 22 -28 63 -105 92 -170 36 -82 61 -127 85
-147 l34 -30 204 0 c176 0 205 2 205 15 0 13 -27 15 -184 15 l-184 0 -57 63
c-31 34 -75 94 -97 132 -23 39 -62 103 -87 142 -25 40 -66 105 -91 144 -25 39
-58 80 -75 92 -16 12 -55 44 -85 73 -163 152 -392 260 -574 271 -57 3 -86 1
-78 -5z"/>
<path d="M2654 6256 c-39 -19 -74 -39 -78 -45 -4 -6 6 -4 21 4 15 9 54 25 86
36 31 11 57 25 57 30 0 13 -8 11 -86 -25z"/>
<path d="M3311 6251 c3 -7 53 -32 111 -56 142 -57 204 -94 307 -180 102 -86
150 -135 168 -173 7 -15 11 -19 8 -9 -7 26 14 21 24 -6 5 -13 32 -73 59 -134
28 -60 67 -165 86 -234 38 -132 54 -161 106 -196 24 -17 37 -20 50 -13 11 6
113 10 234 10 137 0 216 4 216 10 0 6 -82 10 -226 10 l-226 0 -39 31 c-47 37
-68 76 -104 190 -15 46 -35 102 -45 124 -93 208 -134 267 -277 387 -74 63
-194 148 -207 148 -2 0 -37 15 -78 34 -40 18 -86 38 -103 44 -16 5 -38 13 -49
18 -13 5 -17 3 -15 -5z"/>
<path d="M2986 6223 c9 -38 14 -42 14 -10 0 29 17 35 39 15 11 -11 13 -10 9 2
-3 8 -19 16 -37 18 -30 3 -31 2 -25 -25z"/>
<path d="M2149 6172 c-44 -46 -49 -53 -15 -22 80 74 88 81 84 86 -2 2 -33 -27
-69 -64z"/>
<path d="M2240 6225 c-7 -9 -10 -18 -7 -21 3 -3 10 4 17 15 13 25 8 27 -10 6z"/>
<path d="M2651 6209 c-35 -16 -62 -32 -59 -35 4 -3 31 6 62 20 31 14 63 26 71
26 8 0 15 5 15 10 0 16 -20 11 -89 -21z"/>
<path d="M1867 6223 c-4 -3 -2 -12 5 -20 6 -7 7 -17 3 -21 -4 -4 -10 -1 -12 6
-3 8 -14 1 -29 -20 -18 -23 -21 -34 -12 -37 7 -2 23 -13 35 -24 13 -11 26 -17
30 -14 9 10 -27 47 -46 47 -13 0 -13 2 2 17 15 16 18 15 38 -3 13 -10 19 -13
14 -5 -6 11 -4 13 8 8 23 -9 21 6 -3 28 -12 10 -18 25 -16 32 6 14 -6 18 -17
6z"/>
<path d="M2492 6202 c-13 -10 -20 -21 -16 -25 11 -10 26 -9 19 2 -3 5 5 17 17
25 12 9 18 16 13 16 -6 0 -20 -8 -33 -18z"/>
<path d="M3020 6200 c20 -13 43 -13 35 0 -3 6 -16 10 -28 10 -18 0 -19 -2 -7
-10z"/>
<path d="M2290 6164 c-19 -19 -30 -34 -24 -34 5 0 25 16 44 35 43 45 26 43
-20 -1z"/>
<path d="M2690 6175 c-25 -13 -42 -24 -39 -25 10 0 99 40 99 45 0 9 -15 4 -60
-20z"/>
<path d="M3310 6196 c0 -2 41 -20 92 -41 188 -78 337 -183 422 -298 49 -66
112 -133 91 -97 -107 183 -265 311 -517 420 -42 18 -88 26 -88 16z"/>
<path d="M2522 6151 c-54 -51 -54 -62 0 -19 23 18 43 31 44 28 1 -3 6 -1 11 4
5 6 2 6 -6 1 -11 -6 -13 -4 -8 8 9 23 7 22 -41 -22z"/>
<path d="M2990 6154 c0 -12 3 -14 13 -6 7 6 23 9 35 5 13 -3 22 -1 22 6 0 6
-16 11 -35 11 -26 0 -35 -4 -35 -16z"/>
<path d="M3310 6160 c0 -6 12 -15 28 -21 52 -20 207 -102 283 -151 72 -46 169
-136 169 -157 0 -5 21 -33 46 -63 58 -67 96 -142 127 -249 53 -180 85 -246
142 -291 28 -21 40 -23 182 -25 130 -1 153 1 153 13 0 13 -21 15 -132 13
l-131 -2 -37 39 c-37 40 -64 102 -115 264 -31 99 -69 183 -91 200 -13 11 -13
10 -5 -14 6 -14 18 -41 27 -59 27 -50 121 -348 109 -344 -13 5 -61 122 -81
201 -19 75 -63 164 -114 236 -22 30 -55 78 -73 105 -19 28 -57 70 -86 94 -54
46 -265 171 -288 171 -7 0 -32 11 -57 25 -50 28 -56 29 -56 15z"/>
<path d="M2650 6117 c-47 -24 -109 -59 -139 -80 -29 -20 -57 -35 -61 -32 -8 5
-80 -32 -80 -41 0 -2 19 3 42 12 22 8 43 12 46 10 2 -3 34 14 70 38 37 23 102
59 145 81 42 21 77 42 77 47 0 13 -9 9 -100 -35z"/>
<path d="M2121 6088 c-60 -71 -139 -200 -177 -291 -62 -145 -94 -275 -115
-467 -11 -101 -10 -133 6 -260 9 -80 26 -179 36 -220 39 -156 212 -452 312
-533 169 -138 437 -280 569 -302 46 -8 118 -21 161 -30 43 -8 108 -15 143 -15
l64 0 0 54 c0 57 -16 116 -32 116 -6 0 -7 -30 -2 -80 5 -66 4 -80 -7 -76 -8 3
-43 7 -79 9 l-65 4 4 72 c3 67 2 71 -18 71 -19 0 -21 -5 -21 -71 0 -56 -3 -69
-12 -61 -7 5 -60 15 -118 21 -104 12 -107 13 -238 87 -151 84 -269 164 -346
235 -103 94 -258 359 -295 504 -23 91 -51 301 -51 387 0 58 21 218 40 306 37
168 124 361 229 505 38 53 69 97 67 97 -1 0 -26 -28 -55 -62z"/>
<path d="M3982 6040 c112 -113 152 -171 228 -333 30 -64 58 -117 62 -117 11 0
-21 77 -80 197 -58 118 -64 128 -124 191 -24 26 -63 71 -87 100 -24 28 -46 50
-49 48 -2 -3 -14 -1 -26 4 -11 4 23 -36 76 -90z"/>
<path d="M2985 6120 c3 -5 22 -10 41 -10 21 0 33 4 29 10 -3 6 -22 10 -41 10
-21 0 -33 -4 -29 -10z"/>
<path d="M2505 6074 l-50 -46 50 38 c68 52 71 54 59 54 -5 0 -32 -21 -59 -46z"/>
<path d="M3310 6110 c0 -5 10 -12 23 -15 39 -12 310 -168 344 -198 19 -17 54
-62 79 -101 25 -39 61 -87 79 -106 30 -32 72 -115 90 -180 3 -14 25 -82 47
-153 39 -126 40 -128 99 -180 72 -63 84 -66 314 -65 l170 1 -115 12 c-63 7
-153 13 -200 14 -66 1 -92 6 -117 21 -18 11 -33 24 -33 30 0 6 12 2 27 -7 22
-15 55 -19 190 -22 108 -2 163 0 163 7 0 7 -61 12 -168 14 -168 3 -169 3 -211
32 -55 38 -80 84 -129 232 -47 141 -83 216 -144 299 -24 33 -54 77 -67 97 -33
55 -87 97 -206 162 -167 92 -235 122 -235 106z"/>
<path d="M1820 6092 c0 -15 38 -44 44 -34 6 9 -4 20 -31 36 -7 4 -13 3 -13 -2z"/>
<path d="M2330 6045 c-29 -30 -52 -56 -49 -58 2 -2 28 22 58 54 67 74 62 76
-9 4z"/>
<path d="M2693 6082 c-18 -9 -33 -19 -33 -24 0 -5 18 1 40 12 22 11 40 23 40
25 0 7 -11 4 -47 -13z"/>
<path d="M2984 6078 c-3 -4 13 -8 35 -8 23 0 41 2 41 4 0 8 -71 12 -76 4z"/>
<path d="M2600 6029 c-25 -17 -63 -39 -85 -50 -29 -14 -33 -18 -14 -14 24 4
149 81 149 91 0 6 -1 5 -50 -27z"/>
<path d="M2369 6002 c-58 -60 -137 -162 -126 -162 17 0 110 113 101 123 -3 2
14 21 37 41 23 20 40 38 38 41 -3 2 -25 -17 -50 -43z"/>
<path d="M2649 6006 l-87 -42 72 4 c93 4 93 4 98 46 2 20 4 36 3 35 0 0 -39
-20 -86 -43z"/>
<path d="M2985 6030 c-4 -6 11 -10 36 -10 48 0 49 4 2 13 -18 4 -35 2 -38 -3z"/>
<path d="M2105 6002 c-53 -69 -81 -131 -161 -349 -65 -179 -87 -403 -60 -593
35 -244 69 -335 192 -525 98 -151 134 -188 274 -280 189 -124 320 -192 390
-204 145 -23 140 -23 140 -7 0 14 -16 18 -130 32 -82 9 -173 55 -350 174 -30
21 -69 44 -86 53 -63 32 -138 114 -227 246 -50 75 -99 157 -108 182 -10 25
-33 115 -50 200 -28 129 -33 175 -33 284 0 72 6 171 13 220 14 94 60 254 92
317 11 21 19 44 19 53 0 9 8 33 19 53 46 92 55 109 74 135 25 36 18 43 -8 9z"/>
<path d="M3400 6023 c0 -5 5 -14 12 -21 9 -9 9 -12 0 -12 -7 0 -12 -6 -12 -14
0 -8 15 -16 38 -20 51 -8 158 -60 209 -102 43 -35 107 -122 131 -177 7 -15 12
-43 12 -62 0 -19 5 -35 11 -35 8 0 10 17 7 49 -8 77 -98 210 -185 274 -61 44
-223 131 -223 120z"/>
<path d="M2240 5990 c-13 -11 -21 -22 -18 -25 2 -3 15 6 28 20 28 30 22 33
-10 5z"/>
<path d="M1890 5984 c0 -8 5 -12 10 -9 6 3 10 10 10 16 0 5 -4 9 -10 9 -5 0
-10 -7 -10 -16z"/>
<path d="M2990 5985 c0 -11 10 -15 38 -14 36 1 37 1 7 9 l-30 7 30 5 c28 5 28
5 -7 7 -28 1 -38 -3 -38 -14z"/>
<path d="M2116 5938 c-11 -24 -24 -50 -31 -58 -12 -15 -27 -50 -21 -50 8 0 64
98 70 123 9 39 3 33 -18 -15z"/>
<path d="M1750 5963 c0 -5 4 -15 10 -23 11 -18 25 -7 17 15 -6 15 -27 21 -27
8z"/>
<path d="M2230 5907 c-171 -162 -244 -333 -257 -603 l-6 -120 32 -36 31 -36
130 -1 c78 -1 131 2 135 9 4 7 -28 9 -97 8 l-103 -3 -43 44 c-23 24 -45 55
-48 68 -4 14 -4 75 -2 137 4 92 11 129 41 217 42 127 83 193 171 281 57 57 74
79 64 78 -2 0 -23 -20 -48 -43z"/>
<path d="M2131 5873 c-39 -59 -41 -79 -2 -25 16 22 34 43 40 47 13 8 14 25 2
25 -5 0 -23 -21 -40 -47z"/>
<path d="M2324 5873 c-15 -26 -51 -88 -80 -138 -70 -118 -99 -192 -114 -290
-7 -44 -16 -88 -21 -97 -5 -10 -9 -24 -9 -32 0 -23 59 -66 91 -66 33 0 39 16
9 25 -33 10 -60 59 -60 107 0 89 61 265 120 349 29 40 101 181 96 186 -2 3
-17 -17 -32 -44z"/>
<path d="M2346 5845 c-9 -26 -7 -32 5 -12 6 10 9 21 6 23 -2 3 -7 -2 -11 -11z"/>
<path d="M2184 5798 c-83 -91 -148 -273 -161 -448 -7 -101 7 -144 59 -184 34
-25 37 -26 122 -17 116 12 123 23 10 15 -77 -6 -92 -4 -107 10 -22 23 -22 40
1 30 9 -4 58 -9 107 -11 86 -2 88 -2 50 11 l-40 13 38 8 c23 4 35 11 29 17 -5
5 -31 0 -65 -13 l-56 -21 -30 22 c-17 12 -31 24 -31 28 0 4 -16 24 -35 46 -19
21 -35 41 -35 45 0 3 7 47 15 96 22 140 57 228 132 333 24 34 42 62 40 62 -3
0 -22 -19 -43 -42z m-94 -573 c-1 -17 -40 36 -40 54 0 10 7 6 20 -14 11 -16
20 -34 20 -40z"/>
<path d="M2212 5766 c-60 -90 -105 -196 -126 -298 -18 -87 -20 -112 -8 -104 5
3 14 38 21 78 15 84 72 235 111 293 31 46 63 105 56 105 -3 0 -27 -33 -54 -74z"/>
<path d="M2035 5750 c-14 -28 -41 -99 -61 -158 -33 -100 -36 -120 -44 -297 -8
-157 -7 -201 5 -255 8 -36 20 -96 25 -135 21 -150 67 -242 221 -445 58 -78 96
-109 264 -216 170 -109 247 -142 348 -152 64 -6 87 -5 87 4 0 7 -29 13 -80 17
-91 6 -161 35 -305 126 -44 28 -102 64 -130 80 -142 85 -332 353 -379 535 -17
64 -7 123 31 174 l24 32 130 0 c79 0 129 4 129 10 0 6 -51 10 -134 10 l-133 0
-48 51 -47 50 7 107 c11 190 51 354 110 459 28 51 29 53 15 53 -5 0 -21 -23
-35 -50z"/>
<path d="M2328 5783 c-33 -39 -98 -158 -125 -231 -20 -56 -28 -95 -28 -144 0
-38 -4 -68 -10 -68 -5 -1 7 -16 29 -35 37 -33 40 -34 67 -19 36 18 36 25 0 47
-16 9 -40 34 -52 54 -20 32 -21 41 -12 87 12 55 73 190 123 270 31 49 36 70 8
39z"/>
<path d="M2363 5668 c-51 -91 -86 -173 -81 -189 5 -15 49 58 53 86 2 19 23 61
67 132 19 31 21 32 101 36 l82 3 -91 2 -90 2 -41 -72z"/>
<path d="M2433 5708 c-14 -17 -43 -75 -43 -84 0 -5 14 14 31 40 27 44 36 74
12 44z"/>
<path d="M2422 5619 l-53 -91 22 -33 c13 -18 35 -40 49 -48 28 -16 100 -30
100 -19 -1 20 -40 54 -64 56 -16 2 -32 10 -37 17 -13 21 -1 24 21 4 11 -10 20
-13 20 -8 0 6 -6 16 -13 22 -17 13 -15 96 2 139 11 27 15 29 47 22 23 -5 34
-4 34 4 0 6 5 4 10 -4 8 -13 10 -13 10 1 0 20 -20 29 -63 28 -29 0 -36 -7 -85
-90z"/>
<path d="M4030 5691 c0 -8 9 -28 19 -45 10 -17 38 -83 61 -146 52 -143 53
-144 98 -175 36 -25 38 -25 254 -25 132 0 218 4 218 10 0 18 -73 23 -244 15
l-172 -7 -41 45 c-42 45 -90 131 -112 198 -13 41 -81 150 -81 130z"/>
<path d="M1521 5634 c0 -11 3 -14 6 -6 3 7 2 16 -1 19 -3 4 -6 -2 -5 -13z"/>
<path d="M3787 5563 c-2 -4 -10 -33 -17 -63 -15 -67 -56 -145 -88 -171 -23
-17 -23 -19 -6 -25 11 -4 34 -13 53 -20 18 -8 37 -14 42 -14 5 0 9 35 9 78 1
42 5 108 10 147 8 67 8 86 -3 68z"/>
<path d="M3875 5541 c11 -36 16 -99 19 -218 l2 -112 -24 6 c-17 4 -6 -12 45
-65 75 -78 125 -112 163 -111 24 0 24 1 6 12 -36 22 -116 99 -136 131 -14 24
-21 58 -25 141 -7 110 -29 220 -47 232 -6 3 -7 -3 -3 -16z"/>
<path d="M2327 5487 c-22 -35 -21 -47 9 -81 25 -28 26 -28 127 -27 56 1 106 6
112 12 5 5 -13 9 -51 9 -66 0 -88 11 -145 73 l-35 39 -17 -25z"/>
<path d="M4808 5339 c4 -143 -5 -296 -16 -284 -4 4 -12 -31 -18 -77 -11 -79
-50 -230 -95 -363 -26 -77 -40 -105 -49 -100 -5 3 -11 -2 -14 -11 -9 -24 -7
-31 4 -14 5 8 10 11 10 5 0 -5 -11 -23 -25 -39 -14 -17 -28 -40 -31 -53 -4
-13 -9 -23 -13 -23 -3 0 -15 -17 -26 -37 -18 -36 -106 -164 -129 -190 -6 -6
-22 -26 -36 -44 -60 -79 -197 -212 -285 -277 -192 -142 -522 -283 -720 -306
-207 -25 -298 -28 -411 -17 -66 7 -164 16 -219 21 -164 14 -290 52 -480 146
-130 65 -266 153 -315 204 -40 42 -105 97 -95 80 15 -26 118 -129 193 -193 40
-34 70 -67 67 -74 -2 -7 2 -13 10 -13 8 0 34 -18 57 -40 112 -103 130 -119
162 -134 19 -9 47 -30 63 -47 15 -16 48 -39 73 -51 25 -11 64 -34 87 -49 23
-16 51 -29 63 -29 11 0 23 -6 26 -14 6 -16 37 -29 104 -44 141 -33 229 -43
400 -44 l155 -1 -95 -9 c-52 -4 -149 -5 -215 -2 -66 3 -118 4 -115 1 3 -3 91
-13 195 -22 192 -17 373 -14 465 5 25 6 100 16 166 24 100 11 126 18 143 35
12 12 19 27 15 32 -4 8 -1 8 12 1 11 -5 28 -9 39 -8 31 3 165 68 159 77 -3 5
2 6 11 3 9 -4 32 7 58 28 23 19 54 38 70 42 15 3 27 12 27 19 0 6 19 23 41 36
32 18 38 25 28 32 -9 7 -5 8 13 3 23 -5 34 2 78 48 76 78 80 84 80 96 0 7 5
12 10 12 6 0 10 5 10 11 0 15 52 64 63 61 5 -1 6 2 2 7 -3 6 -13 8 -23 5 -16
-5 -16 -5 1 6 9 6 17 17 17 24 0 8 7 17 16 20 9 4 14 9 11 13 -4 3 7 22 24 42
55 66 64 81 50 81 -6 0 -20 -10 -30 -22 -11 -13 -31 -36 -45 -53 -16 -19 -26
-24 -26 -15 0 8 16 33 36 55 19 22 56 72 82 110 25 39 55 79 64 90 10 10 16
26 13 34 -3 9 -3 12 1 9 3 -4 16 9 26 30 58 106 74 147 43 106 -20 -27 -18
-14 6 43 11 26 22 62 24 78 9 69 30 143 38 138 6 -3 7 -1 3 6 -4 6 -12 9 -17
5 -12 -7 -6 57 13 143 8 38 8 80 1 150 -6 54 -7 100 -2 103 14 10 -65 497 -84
517 -2 1 -1 -61 1 -138z m-258 -1499 c0 -5 -5 -10 -11 -10 -5 0 -7 5 -4 10 3
6 8 10 11 10 2 0 4 -4 4 -10z m-500 -400 c-8 -5 -19 -10 -25 -10 -5 0 -3 5 5
10 8 5 20 10 25 10 6 0 3 -5 -5 -10z m-40 -15 c0 -6 -56 -35 -67 -35 -4 1 8 9
27 20 39 22 40 22 40 15z m-166 -91 c4 -9 4 -19 1 -22 -7 -8 -35 19 -29 29 8
14 21 11 28 -7z m-76 -35 c-2 -6 -8 -10 -13 -10 -5 0 -11 4 -13 10 -2 6 4 11
13 11 9 0 15 -5 13 -11z"/>
<path d="M3833 5403 c9 -2 25 -2 35 0 9 3 1 5 -18 5 -19 0 -27 -2 -17 -5z"/>
<path d="M3944 5316 c4 -44 13 -94 20 -111 17 -41 105 -117 129 -111 13 3 16
0 13 -12 -5 -16 18 -17 284 -17 259 0 328 5 273 18 -10 2 -134 5 -275 6 l-256
2 -64 62 c-35 34 -72 67 -82 72 -12 7 -20 32 -27 85 -14 101 -23 104 -15 6z"/>
<path d="M2436 5349 c-43 -5 -81 -11 -85 -15 -3 -4 12 -4 34 -1 22 4 73 7 113
7 41 0 72 4 72 10 0 11 -20 11 -134 -1z"/>
<path d="M3810 5350 c0 -6 17 -10 37 -10 43 0 41 5 -4 13 -19 4 -33 2 -33 -3z"/>
<path d="M2516 5312 c-3 -3 -3 -9 0 -13 7 -12 54 -12 54 0 0 10 -47 21 -54 13z"/>
<path d="M2315 5300 c-5 -8 18 -9 72 -4 43 4 80 8 82 10 2 2 -30 4 -72 4 -42
0 -79 -5 -82 -10z"/>
<path d="M6051 5273 c-36 -44 -38 -66 -11 -111 36 -58 105 -69 151 -23 64 64
20 171 -70 171 -34 0 -44 -6 -70 -37z m128 -9 c12 -15 21 -37 21 -49 0 -35
-37 -75 -70 -75 -42 0 -59 9 -75 41 -11 21 -12 34 -4 56 16 43 29 53 69 53 30
0 43 -6 59 -26z"/>
<path d="M3810 5260 c0 -5 11 -10 25 -10 14 0 25 5 25 10 0 6 -11 10 -25 10
-14 0 -25 -4 -25 -10z"/>
<path d="M6630 5260 c-9 -6 -10 -10 -3 -10 6 0 15 5 18 10 8 12 4 12 -15 0z"/>
<path d="M2334 5249 c-5 -8 6 -10 35 -7 22 2 41 0 41 -4 0 -5 12 -8 26 -8 14
0 23 4 19 10 -3 5 -12 7 -20 3 -8 -3 -15 0 -15 6 0 14 -77 14 -86 0z"/>
<path d="M2526 5245 c4 -8 15 -15 25 -15 10 0 19 7 19 15 0 9 -9 15 -25 15
-18 0 -23 -4 -19 -15z"/>
<path d="M6890 5251 c0 -5 9 -7 20 -4 11 3 20 7 20 9 0 2 -9 4 -20 4 -11 0
-20 -4 -20 -9z"/>
<path d="M6561 5234 c0 -11 3 -14 6 -6 3 7 2 16 -1 19 -3 4 -6 -2 -5 -13z"/>
<path d="M6686 5242 c-2 -4 10 -8 29 -8 19 0 31 4 29 8 -3 4 -16 8 -29 8 -13
0 -26 -4 -29 -8z"/>
<path d="M6950 5240 c0 -5 5 -10 11 -10 5 0 7 5 4 10 -3 6 -8 10 -11 10 -2 0
-4 -4 -4 -10z"/>
<path d="M7009 5233 c-13 -16 -12 -17 4 -4 16 13 21 21 13 21 -2 0 -10 -8 -17
-17z"/>
<path d="M4470 5231 c0 -6 17 -7 38 -4 51 8 53 13 4 13 -23 0 -42 -4 -42 -9z"/>
<path d="M4570 5231 c0 -13 27 -21 71 -21 28 0 39 4 39 15 0 12 -13 15 -55 15
-30 0 -55 -4 -55 -9z"/>
<path d="M6435 5210 c3 -5 11 -10 16 -10 6 0 7 5 4 10 -3 6 -11 10 -16 10 -6
0 -7 -4 -4 -10z"/>
<path d="M2430 5200 c-12 -8 -11 -10 8 -10 12 0 22 5 22 10 0 13 -11 13 -30 0z"/>
<path d="M2525 5200 c-8 -13 20 -24 42 -16 15 6 15 8 3 16 -20 13 -37 12 -45
0z"/>
<path d="M2330 5190 c0 -5 11 -10 24 -10 14 0 28 5 31 10 4 6 -7 10 -24 10
-17 0 -31 -4 -31 -10z"/>
<path d="M6660 5181 c0 -5 5 -13 10 -16 6 -3 10 -2 10 4 0 5 -4 13 -10 16 -5
3 -10 2 -10 -4z"/>
<path d="M4572 5168 c3 -8 27 -14 61 -16 46 -2 57 0 57 13 0 12 -13 15 -61 15
-44 0 -60 -3 -57 -12z"/>
<path d="M6428 5163 c6 -2 18 -2 25 0 6 3 1 5 -13 5 -14 0 -19 -2 -12 -5z"/>
<path d="M2373 5153 c-18 -2 -33 -9 -33 -15 0 -7 16 -9 46 -4 26 3 62 6 80 6
19 0 34 5 34 10 0 10 -61 11 -127 3z"/>
<path d="M2520 5150 c0 -5 14 -10 31 -10 17 0 28 4 24 10 -3 6 -17 10 -31 10
-13 0 -24 -4 -24 -10z"/>
<path d="M2530 5120 c0 -5 12 -10 28 -10 21 0 24 2 12 10 -20 13 -40 13 -40 0z"/>
<path d="M4605 5120 c-4 -6 10 -10 34 -10 23 0 41 5 41 10 0 6 -15 10 -34 10
-19 0 -38 -4 -41 -10z"/>
<path d="M2397 5093 c-4 -4 -20 -7 -34 -8 -15 0 -28 -6 -31 -13 -3 -10 4 -12
34 -5 22 4 60 8 87 8 26 0 47 3 47 7 0 5 -15 8 -34 8 -19 0 -41 2 -48 5 -8 3
-17 2 -21 -2z"/>
<path d="M2522 5078 c6 -18 58 -30 58 -13 0 7 -10 15 -22 19 -33 8 -40 7 -36
-6z"/>
<path d="M2415 5040 c-4 -6 11 -10 37 -9 33 0 38 2 23 9 -28 12 -53 12 -60 0z"/>
<path d="M4427 5043 c-39 -2 -65 -8 -62 -13 8 -14 305 -13 305 0 0 6 -26 10
-59 10 -32 0 -71 2 -87 3 -16 2 -60 2 -97 0z"/>
<path d="M8731 5005 c-17 -24 -52 -59 -76 -76 -52 -38 -59 -48 -14 -22 41 24
96 79 115 115 21 40 12 35 -25 -17z"/>
<path d="M2039 5019 c-10 -10 -19 -28 -19 -38 0 -24 50 -166 86 -245 26 -58
180 -272 225 -313 53 -48 283 -196 332 -213 29 -10 60 -21 70 -25 9 -4 17 -3
17 3 0 5 -19 17 -42 27 -86 34 -115 50 -246 138 -126 85 -138 96 -211 194 -89
120 -180 289 -188 350 -5 38 -2 46 32 82 38 40 81 62 71 36 -4 -10 2 -11 27
-4 18 5 49 9 70 9 21 0 36 4 32 9 -3 5 -57 10 -121 10 -101 0 -117 -2 -135
-20z"/>
<path d="M2520 5021 c0 -9 52 -22 60 -15 7 7 -23 24 -42 24 -10 0 -18 -4 -18
-9z"/>
<path d="M1492 5005 c0 -11 4 -33 8 -50 7 -27 8 -27 8 -5 0 14 -4 36 -8 50 -6
20 -8 21 -8 5z"/>
<path d="M4160 5014 c0 -23 132 -134 159 -134 9 0 0 9 -19 21 -19 11 -59 44
-87 72 -29 28 -53 47 -53 41z"/>
<path d="M2336 4993 c-8 -9 86 -32 132 -33 21 0 32 5 32 14 0 12 -7 13 -32 6
-17 -5 -43 -7 -57 -3 l-26 7 25 7 c20 5 15 7 -21 8 -25 1 -49 -2 -53 -6z"/>
<path d="M4373 4988 c2 -7 18 -13 35 -12 18 0 82 1 143 2 165 3 129 22 -42 22
-108 0 -140 -3 -136 -12z"/>
<path d="M2160 4983 c-35 -7 -70 -42 -70 -70 0 -42 107 -251 182 -355 76 -107
78 -108 285 -234 99 -60 193 -101 193 -84 0 4 -29 22 -64 39 -68 32 -100 60
-55 47 13 -4 32 -9 43 -11 10 -2 24 -9 32 -16 8 -6 14 -8 14 -3 0 5 5 2 10 -6
7 -10 10 12 10 72 0 105 18 96 -198 101 -106 3 -150 1 -142 -7 6 -6 76 -12
162 -14 84 -2 157 -8 163 -13 5 -6 2 -9 -8 -9 -13 0 -17 -8 -16 -32 l1 -33 7
30 7 30 7 -25 c8 -29 9 -80 2 -80 -2 0 -22 6 -42 14 -21 8 -55 17 -75 19 -34
5 -61 17 -173 75 -89 46 -226 236 -295 411 l-19 50 31 26 c49 41 107 67 135
60 18 -4 24 -2 21 7 -5 13 -99 20 -148 11z"/>
<path d="M2520 4970 c0 -5 11 -10 25 -10 14 0 25 5 25 10 0 6 -11 10 -25 10
-14 0 -25 -4 -25 -10z"/>
<path d="M4085 4933 c-22 -14 -53 -37 -68 -52 -34 -31 -91 -110 -84 -117 3 -3
14 10 25 28 25 40 104 118 123 122 45 9 69 20 66 29 -6 19 -21 16 -62 -10z"/>
<path d="M4374 4951 c-16 -17 14 -21 141 -21 90 0 145 4 145 10 0 6 -15 11
-32 11 -85 4 -250 4 -254 0z"/>
<path d="M2000 4921 c0 -40 62 -208 100 -271 51 -84 155 -214 213 -265 46 -41
133 -98 197 -130 19 -10 57 -33 85 -51 27 -18 77 -42 111 -53 75 -24 174 -37
174 -24 0 6 -26 13 -58 16 -59 6 -206 60 -231 84 -7 8 -39 27 -70 44 -141 74
-253 173 -363 319 -41 54 -93 166 -122 263 -26 86 -36 105 -36 68z"/>
<path d="M2192 4906 l-37 -34 24 -26 24 -26 21 23 c12 12 34 32 50 44 35 28
29 53 -14 53 -21 0 -42 -11 -68 -34z"/>
<path d="M2530 4919 c0 -12 7 -19 20 -19 11 0 20 6 20 14 0 7 -9 16 -20 19
-15 4 -20 0 -20 -14z"/>
<path d="M2340 4921 c0 -10 141 -22 155 -13 11 7 -60 20 -117 21 -21 1 -38 -3
-38 -8z"/>
<path d="M1510 4900 c0 -11 4 -20 9 -20 5 0 7 9 4 20 -3 11 -7 20 -9 20 -2 0
-4 -9 -4 -20z"/>
<path d="M4010 4826 c-40 -47 -76 -87 -80 -88 -16 -6 -91 -110 -85 -116 4 -4
16 4 27 18 10 14 43 52 72 85 84 96 148 176 143 181 -2 3 -37 -34 -77 -80z"/>
<path d="M4370 4902 c0 -14 64 -22 178 -22 79 0 103 3 100 13 -5 14 -278 23
-278 9z"/>
<path d="M2264 4858 c-18 -16 -34 -36 -34 -44 0 -17 51 -110 94 -174 17 -24
34 -51 37 -60 6 -13 8 -12 14 3 5 13 -2 29 -22 55 -17 20 -38 53 -47 72 -16
33 -14 32 29 -15 28 -31 45 -43 45 -33 0 9 -23 37 -51 62 -56 50 -56 45 3 114
l27 32 97 -5 c53 -3 100 -8 105 -11 5 -3 9 2 9 10 0 13 -16 16 -92 17 -51 0
-112 2 -136 4 -37 3 -48 -1 -78 -27z"/>
<path d="M4228 4883 c6 -2 18 -2 25 0 6 3 1 5 -13 5 -14 0 -19 -2 -12 -5z"/>
<path d="M8576 4883 c-4 -5 -569 -10 -1254 -13 l-1247 -5 1247 0 c984 0 1250
3 1260 13 6 6 10 12 7 12 -3 0 -9 -3 -13 -7z"/>
<path d="M4052 4818 c-28 -29 -64 -70 -80 -90 -16 -21 -94 -100 -173 -177 -79
-76 -141 -142 -137 -146 3 -4 73 60 155 142 246 246 317 323 301 323 -8 0 -38
-24 -66 -52z"/>
<path d="M4252 4851 l-114 -6 -105 -110 c-222 -232 -370 -378 -410 -406 -52
-36 -113 -63 -223 -99 -46 -16 -86 -33 -88 -39 -2 -6 1 -11 6 -11 15 0 213 70
247 87 59 30 161 112 210 170 91 106 258 272 268 266 6 -3 7 -2 4 4 -3 5 18
35 47 65 41 44 61 57 94 63 23 3 46 4 52 0 15 -10 400 6 400 16 0 9 -199 9
-388 0z"/>
<path d="M2352 4819 c-38 -37 -41 -61 -8 -82 22 -15 24 -14 60 29 42 50 44 78
6 82 -17 2 -35 -7 -58 -29z m48 -23 c0 -3 -4 -8 -10 -11 -5 -3 -10 -1 -10 4 0
6 5 11 10 11 6 0 10 -2 10 -4z"/>
<path d="M2170 4822 c0 -29 105 -201 180 -292 39 -48 9 11 -54 106 -34 51 -75
116 -93 145 -18 30 -32 48 -33 41z"/>
<path d="M2449 4787 c-14 -18 -33 -43 -42 -57 l-16 -25 52 4 c60 4 83 17 66
37 -6 7 -20 14 -32 16 l-22 3 22 22 c12 12 19 24 16 27 -10 10 -17 6 -44 -27z"/>
<path d="M2520 4810 c0 -5 11 -10 25 -10 14 0 25 5 25 10 0 6 -11 10 -25 10
-14 0 -25 -4 -25 -10z"/>
<path d="M4149 4788 c-15 -18 -48 -57 -73 -86 -25 -29 -46 -58 -46 -64 0 -14
110 107 125 136 10 20 18 21 243 21 128 0 232 3 232 6 0 14 -71 19 -258 19
l-195 0 -28 -32z"/>
<path d="M9533 4760 c0 -25 2 -35 4 -22 2 12 2 32 0 45 -2 12 -4 2 -4 -23z"/>
<path d="M2523 4776 c4 -14 47 -21 47 -8 0 5 -11 12 -25 15 -16 3 -24 0 -22
-7z"/>
<path d="M4177 4768 c-15 -11 3 -13 115 -10 73 2 174 -1 223 -6 62 -6 92 -5
97 2 4 6 6 12 4 13 -1 2 -97 6 -212 9 -166 4 -213 3 -227 -8z"/>
<path d="M2535 4730 c-8 -13 5 -13 25 0 13 8 13 10 -2 10 -9 0 -20 -4 -23 -10z"/>
<path d="M3966 4618 c-36 -40 -66 -76 -66 -80 0 -4 -6 -8 -14 -8 -7 0 -34 -24
-58 -52 -97 -115 -70 -100 64 35 76 76 158 177 144 177 -2 0 -34 -32 -70 -72z"/>
<path d="M6030 4494 c-73 -20 -127 -53 -179 -109 -148 -161 -147 -420 2 -582
47 -51 86 -78 167 -113 l55 -25 1262 -3 c1122 -3 1267 -1 1308 13 70 23 122
52 139 77 9 12 16 19 16 14 0 -16 38 40 57 82 10 23 21 42 25 42 5 0 8 15 8
34 0 19 5 38 11 42 17 10 5 207 -17 269 -21 62 -76 146 -117 181 -18 15 -61
41 -97 58 l-65 31 -1260 2 c-1086 2 -1268 0 -1315 -13z m243 -1 c-29 -2 -77
-2 -105 0 -29 2 -6 3 52 3 58 0 81 -1 53 -3z m190 0 c-13 -2 -33 -2 -45 0 -13
2 -3 4 22 4 25 0 35 -2 23 -4z m460 0 c-24 -2 -62 -2 -85 0 -24 2 -5 4 42 4
47 0 66 -2 43 -4z m224 1 c-3 -3 -12 -4 -19 -1 -8 3 -5 6 6 6 11 1 17 -2 13
-5z m191 -1 c-16 -2 -40 -2 -55 0 -16 2 -3 4 27 4 30 0 43 -2 28 -4z m165 0
c-13 -2 -35 -2 -50 0 -16 2 -5 4 22 4 28 0 40 -2 28 -4z m550 0 c-18 -2 -48
-2 -65 0 -18 2 -4 4 32 4 36 0 50 -2 33 -4z m-1243 -347 l5 -58 24 26 c14 14
33 26 43 26 22 0 24 -16 3 -24 -8 -3 -20 -17 -27 -31 -10 -23 -8 -29 22 -60
52 -53 21 -59 -47 -9 -22 16 -23 16 -23 -10 0 -19 -5 -26 -20 -26 -19 0 -20 7
-20 116 0 105 2 115 18 112 13 -2 18 -16 22 -62z m-364 -14 l22 -64 31 66 c26
55 35 66 56 66 l25 0 0 -110 c0 -103 -1 -110 -20 -110 -18 0 -20 7 -20 67 0
74 -6 75 -29 5 -23 -67 -45 -67 -76 0 l-24 53 0 -62 c-1 -56 -3 -63 -21 -63
-19 0 -20 7 -20 103 0 57 3 107 7 111 4 4 16 6 27 4 15 -2 26 -20 42 -66z
m808 57 c36 -17 53 -72 32 -104 -15 -23 -23 -27 -78 -39 -23 -5 -28 -12 -28
-36 0 -23 -4 -30 -20 -30 -19 0 -20 7 -20 103 0 57 3 107 7 110 10 11 80 8
107 -4z m966 -28 c0 -13 8 -21 23 -23 29 -4 29 -22 -1 -26 -20 -3 -23 -8 -20
-45 2 -32 8 -44 26 -52 31 -14 22 -29 -21 -33 -39 -3 -38 -6 -52 83 -4 22 -11
45 -16 51 -6 7 -4 16 6 24 8 7 15 19 15 26 0 8 9 14 20 14 13 0 20 -7 20 -19z
m-1502 -37 c19 -13 22 -24 22 -78 l0 -63 -49 -2 c-55 -2 -81 16 -81 54 0 27
26 45 64 45 31 0 34 15 6 30 -14 8 -26 8 -40 0 -22 -12 -27 -1 -8 18 17 17 59
15 86 -4z m306 -6 c9 -12 16 -33 16 -46 0 -22 -3 -24 -45 -20 -36 2 -45 0 -43
-12 2 -9 17 -16 41 -18 49 -4 49 -29 0 -38 -33 -6 -40 -3 -65 25 -33 37 -35
55 -8 99 16 26 26 32 54 32 25 0 39 -7 50 -22z m389 8 c15 -16 33 -123 23
-134 -12 -11 -100 -11 -113 0 -7 6 -13 23 -13 39 0 30 23 49 59 49 15 0 19 5
14 16 -4 12 -14 15 -39 11 -32 -5 -46 8 -27 26 12 13 81 7 96 -7z m83 -18 c13
-43 33 -47 41 -8 6 30 27 49 40 36 8 -8 -46 -168 -66 -195 -11 -15 -26 -22
-40 -19 l-23 3 21 27 c26 33 26 49 1 116 -25 64 -25 72 -1 72 12 0 21 -11 27
-32z m309 13 c4 -9 9 -44 12 -78 5 -58 4 -63 -15 -63 -17 0 -21 9 -27 60 -4
33 -8 60 -10 60 -26 0 -35 -17 -35 -66 0 -47 -3 -54 -19 -54 -16 0 -21 9 -26
48 -9 64 -12 72 -30 72 -12 0 -15 -13 -15 -60 0 -52 -3 -60 -19 -60 -15 0 -19
11 -25 72 -4 50 -3 74 5 79 7 4 54 7 105 7 76 -1 94 -4 99 -17z m143 11 c14
-10 33 -68 24 -76 -3 -3 -23 -6 -44 -6 -21 0 -38 -4 -38 -9 0 -18 30 -33 56
-27 21 6 25 4 22 -11 -4 -20 -37 -28 -74 -19 -28 7 -67 76 -57 103 16 47 72
69 111 45z m177 -2 c3 -5 9 -41 12 -80 6 -67 5 -70 -16 -70 -11 0 -21 3 -22 8
-3 48 -10 96 -15 103 -11 19 -40 9 -40 -13 -1 -74 -5 -98 -18 -98 -18 0 -26
31 -26 103 l0 57 59 0 c33 0 63 -4 66 -10z"/>
<path d="M7186 4144 c-14 -37 -7 -54 23 -54 33 0 42 15 30 48 -10 25 -44 30
-53 6z"/>
<path d="M6630 4040 c0 -14 29 -32 45 -28 27 5 18 23 -15 29 -16 4 -30 3 -30
-1z"/>
<path d="M6962 4108 c-22 -22 -14 -39 16 -32 36 9 37 11 22 29 -15 18 -22 19
-38 3z"/>
<path d="M7340 4024 c0 -10 7 -14 22 -12 32 5 35 28 4 28 -17 0 -26 -5 -26
-16z"/>
<path d="M7880 4089 c0 -18 4 -20 27 -14 34 8 37 11 28 24 -3 6 -17 11 -31 11
-18 0 -24 -5 -24 -21z"/>
<path d="M2988 4355 l3 -105 37 1 37 1 -32 10 c-18 6 -33 17 -33 24 0 17 1 17
34 4 23 -8 26 -7 26 10 0 16 -7 20 -30 20 -20 0 -30 5 -30 15 0 10 10 15 30
15 17 0 30 5 30 10 0 6 -13 10 -30 10 -21 0 -30 5 -30 16 0 13 7 15 35 11 19
-3 35 -2 35 4 0 5 -16 9 -35 9 -28 0 -35 4 -35 19 0 17 5 19 35 14 23 -4 35
-2 35 6 0 6 -18 11 -42 11 l-43 0 3 -105z"/>
<path d="M3340 4436 c0 -2 7 -6 15 -10 8 -3 15 -1 15 4 0 6 -7 10 -15 10 -8 0
-15 -2 -15 -4z"/>
<path d="M2493 4409 c29 -17 151 -50 165 -44 21 8 14 42 -10 49 -13 3 -57 6
-98 6 -58 -1 -71 -3 -57 -11z"/>
<path d="M3605 4360 c-107 -49 -204 -89 -242 -100 -24 -6 -43 -15 -43 -20 0
-6 2 -10 4 -10 17 0 172 57 216 79 111 57 162 96 65 51z"/>
<path d="M3437 4329 c-26 -10 -64 -20 -83 -22 -25 -1 -34 -7 -34 -19 0 -10 1
-18 3 -18 10 0 109 41 142 58 50 26 35 27 -28 1z"/>
<path d="M3855 4322 c-17 -15 -45 -39 -64 -55 -18 -15 -31 -32 -29 -38 5 -14
90 57 112 94 21 33 19 33 -19 -1z"/>
<path d="M2985 4220 c-3 -5 12 -11 32 -13 l38 -4 -38 -1 c-31 -2 -38 -6 -35
-19 2 -13 14 -19 41 -21 38 -3 38 -3 35 30 -3 29 -7 33 -35 35 -18 2 -35 -1
-38 -7z m58 -37 c-7 -2 -21 -2 -30 0 -10 3 -4 5 12 5 17 0 24 -2 18 -5z"/>
<path d="M2950 4127 c0 -18 108 -17 115 1 3 9 -12 12 -55 12 -43 0 -60 -4 -60
-13z"/>
<path d="M2961 4065 c-1 -22 4 -31 17 -32 9 -1 32 -3 50 -5 34 -4 35 -3 22 27
-7 17 -9 17 -9 3 -2 -33 -61 -15 -74 22 -3 8 -6 1 -6 -15z"/>
<path d="M2367 4039 c7 -7 15 -10 18 -7 3 3 -2 9 -12 12 -14 6 -15 5 -6 -5z"/>
<path d="M1570 3506 c0 -2 7 -7 16 -10 8 -3 12 -2 9 4 -6 10 -25 14 -25 6z"/>
<path d="M4780 3331 c0 -94 3 -171 8 -171 4 0 45 23 92 51 47 28 111 64 143
81 31 17 57 34 57 38 0 11 -34 32 -174 105 l-126 67 0 -171z m35 128 c-4 -6
-1 -9 6 -8 17 3 239 -108 239 -119 0 -4 -24 -20 -52 -35 -64 -32 -154 -83
-182 -103 -11 -8 -24 -14 -29 -14 -5 0 -7 65 -5 145 2 111 6 145 16 145 7 0
10 -5 7 -11z"/>
<path d="M1651 3404 c0 -11 3 -14 6 -6 3 7 2 16 -1 19 -3 4 -6 -2 -5 -13z"/>
<path d="M1447 3372 c-25 -27 -21 -50 12 -66 27 -14 30 -14 51 9 22 23 22 25
6 50 -19 30 -46 32 -69 7z"/>
<path d="M1270 3340 c-6 -11 -8 -20 -6 -20 3 0 10 9 16 20 6 11 8 20 6 20 -3
0 -10 -9 -16 -20z"/>
<path d="M1653 3280 c0 -36 2 -50 4 -32 2 17 2 47 0 65 -2 17 -4 3 -4 -33z"/>
<path d="M5870 3300 c-14 -26 1 -55 38 -72 41 -20 35 -43 -10 -42 -21 1 -38
-3 -38 -8 0 -15 28 -21 65 -14 30 6 35 11 35 34 0 36 -9 48 -43 56 -43 10 -32
41 14 41 25 0 35 4 32 13 -3 7 -22 12 -44 12 -28 0 -41 -5 -49 -20z"/>
<path d="M7077 3302 c-18 -20 -22 -42 -8 -42 5 0 11 9 14 20 7 28 31 25 45 -5
6 -14 16 -25 22 -25 13 0 13 12 0 44 -12 31 -49 35 -73 8z"/>
<path d="M7670 3300 c-24 -24 -27 -86 -4 -118 20 -28 69 -30 84 -3 14 27 13
114 -2 129 -18 18 -56 14 -78 -8z m67 -62 c-6 -42 -24 -71 -39 -62 -32 20 -32
109 0 117 30 6 44 -14 39 -55z"/>
<path d="M7814 3309 c-26 -42 -21 -122 9 -141 38 -24 87 13 87 67 0 57 -18 85
-56 85 -18 0 -36 -5 -40 -11z m60 -25 c10 -26 7 -79 -6 -92 -32 -32 -56 8 -44
73 7 38 38 49 50 19z"/>
<path d="M8026 3307 c-12 -9 -20 -31 -23 -64 -5 -44 -2 -52 18 -67 31 -22 55
-20 80 5 18 18 20 29 15 67 -3 25 -11 51 -17 58 -15 18 -50 18 -73 1z m60 -31
c3 -13 4 -38 2 -57 -2 -29 -7 -34 -28 -34 -21 0 -26 5 -28 34 -5 51 5 81 28
81 12 0 22 -9 26 -24z"/>
<path d="M8169 3304 c-8 -10 -14 -40 -14 -72 0 -52 2 -57 27 -66 22 -8 32 -6
48 9 39 35 20 85 -32 85 -26 0 -28 2 -18 20 13 24 28 25 52 3 15 -13 18 -14
18 -2 0 37 -56 53 -81 23z m51 -88 c0 -32 -18 -43 -37 -23 -20 20 -10 47 17
47 15 0 20 -7 20 -24z"/>
<path d="M8414 3295 c-22 -33 -10 -45 14 -15 21 26 52 22 52 -8 0 -20 -69 -92
-88 -92 -7 0 -12 -4 -12 -8 0 -4 32 -9 70 -10 52 -1 70 2 70 11 0 9 -11 12
-35 9 -43 -5 -45 10 -5 40 32 23 40 64 18 86 -21 21 -66 14 -84 -13z"/>
<path d="M8558 3274 c3 -34 8 -44 18 -40 8 3 20 8 27 11 6 3 18 1 26 -4 12 -8
13 -14 3 -36 -11 -24 -17 -27 -43 -21 -22 4 -29 2 -26 -7 2 -6 19 -12 37 -12
27 0 38 6 49 26 13 24 13 29 -2 53 -11 17 -26 26 -43 26 -34 0 -26 24 9 28 43
5 31 22 -16 22 l-42 0 3 -46z"/>
<path d="M8738 3315 c-3 -3 -3 -28 0 -55 5 -52 2 -54 -45 -53 -7 1 -13 -3 -13
-8 0 -5 16 -9 35 -9 24 0 35 -5 35 -15 0 -8 5 -15 10 -15 6 0 10 5 10 11 0 7
8 18 18 25 16 13 16 13 0 14 -15 0 -18 9 -18 55 0 39 -4 55 -13 55 -8 0 -16
-2 -19 -5z"/>
<path d="M6179 3283 c-2 -32 2 -87 7 -105 6 -19 54 -26 54 -8 0 6 -7 10 -15
10 -10 0 -15 11 -15 35 0 19 5 35 10 35 6 0 10 4 10 10 0 5 -7 7 -16 3 -11 -4
-15 -1 -12 12 2 10 -3 20 -9 22 -7 3 -13 -4 -14 -14z"/>
<path d="M6580 3260 c-24 -24 -26 -63 -4 -84 17 -18 74 -22 74 -6 0 6 -11 10
-24 10 -13 0 -30 7 -37 16 -12 15 -9 16 29 13 47 -5 54 9 26 49 -19 27 -38 28
-64 2z m48 -17 c2 -8 -5 -13 -17 -13 -12 0 -21 6 -21 16 0 18 31 15 38 -3z"/>
<path d="M7220 3265 c7 -9 15 -13 17 -11 7 7 -7 26 -19 26 -6 0 -6 -6 2 -15z"/>
<path d="M8695 3257 c-10 -15 -16 -30 -13 -32 8 -9 40 33 36 47 -3 8 -11 2
-23 -15z"/>
<path d="M1275 3210 c33 -33 62 -60 64 -60 3 0 -21 27 -54 60 -33 33 -62 60
-64 60 -3 0 21 -27 54 -60z"/>
<path d="M6000 3251 c-15 -30 -12 -56 10 -76 28 -25 65 -13 79 26 14 39 14 35
-5 53 -22 23 -71 20 -84 -3z m64 -14 c13 -20 -2 -50 -27 -55 -20 -4 -31 32
-17 58 13 24 28 22 44 -3z"/>
<path d="M6277 3252 c-36 -39 -11 -96 38 -90 64 7 70 108 7 108 -16 0 -36 -8
-45 -18z m61 -29 c3 -31 -19 -60 -38 -48 -22 14 -1 90 23 82 7 -2 13 -17 15
-34z"/>
<path d="M6440 3221 c0 -57 19 -81 21 -27 2 58 3 61 20 64 13 2 18 -8 23 -48
8 -59 26 -67 26 -11 0 61 -7 71 -51 71 l-39 0 0 -49z"/>
<path d="M6694 3224 c3 -25 8 -50 12 -55 10 -17 34 -9 34 11 0 11 -4 20 -10
20 -5 0 -10 9 -10 19 0 27 -10 51 -22 51 -7 0 -8 -17 -4 -46z"/>
<path d="M6740 3241 c0 -27 44 -91 54 -80 3 2 8 29 12 58 5 40 4 52 -5 47 -6
-4 -11 -16 -11 -26 0 -32 -20 -33 -26 -1 -8 39 -24 40 -24 2z"/>
<path d="M6847 3263 c-13 -12 -7 -22 13 -20 11 1 20 7 20 14 0 14 -22 18 -33
6z"/>
<path d="M7070 3231 c-16 -31 -12 -51 15 -63 32 -14 75 3 75 30 0 44 -70 70
-90 33z m65 -26 c0 -26 -49 -34 -59 -10 -9 25 3 37 32 33 19 -2 27 -9 27 -23z"/>
<path d="M7220 3199 c-7 -11 -9 -24 -5 -27 7 -7 35 25 35 40 0 16 -19 8 -30
-13z"/>
<path d="M1619 3183 l-24 -28 28 24 c25 23 32 31 24 31 -2 0 -14 -12 -28 -27z"/>
<path d="M6996 3195 c4 -8 8 -15 10 -15 2 0 4 7 4 15 0 8 -4 15 -10 15 -5 0
-7 -7 -4 -15z"/>
<path d="M6860 3180 c0 -5 5 -10 10 -10 6 0 10 5 10 10 0 6 -4 10 -10 10 -5 0
-10 -4 -10 -10z"/>
<path d="M8287 3170 c-11 -41 -8 -45 18 -20 14 13 25 28 25 34 0 6 -7 3 -14
-7 -14 -18 -14 -18 -18 0 -3 14 -5 13 -11 -7z"/>
<path d="M3155 3173 c22 -3 44 -10 48 -16 6 -8 7 -7 4 3 -2 10 -18 15 -48 16
-44 1 -44 1 -4 -3z"/>
<path d="M7940 3159 c0 -11 5 -17 10 -14 6 3 10 13 10 21 0 8 -4 14 -10 14 -5
0 -10 -9 -10 -21z"/>
<path d="M3258 3163 c7 -3 16 -2 19 1 4 3 -2 6 -13 5 -11 0 -14 -3 -6 -6z"/>
<path d="M1583 3136 c-4 -7 -15 -16 -23 -19 -12 -4 -12 -6 2 -6 10 -1 22 8 28
19 12 22 6 28 -7 6z"/>
<path d="M1359 3117 c4 -4 48 -6 97 -5 l89 3 -97 5 c-53 3 -94 1 -89 -3z"/>
<path d="M5950 2771 c-303 -93 -389 -512 -151 -733 84 -78 98 -88 160 -111 55
-22 67 -22 689 -24 650 -1 664 -1 752 40 42 19 129 87 113 87 -5 0 -3 4 4 8
25 16 62 83 80 144 25 83 17 255 -16 338 -42 110 -131 200 -236 239 -55 21
-70 21 -713 20 -361 0 -668 -4 -682 -8z m418 -293 c-2 -13 -10 -23 -18 -23 -8
0 -16 10 -18 23 -3 17 2 22 18 22 16 0 21 -5 18 -22z m497 2 c0 -8 -10 -16
-22 -18 -22 -3 -32 16 -16 32 12 11 38 2 38 -14z m-579 -11 c14 -23 15 -165 2
-177 -14 -11 -62 -17 -110 -14 l-28 2 0 100 0 100 64 0 c37 0 68 -5 72 -11z
m164 -8 c0 -12 9 -21 26 -25 30 -8 27 -30 -4 -34 -19 -3 -22 -10 -22 -47 0
-38 3 -44 23 -47 31 -4 28 -32 -4 -36 -41 -5 -51 17 -59 141 0 4 -7 7 -15 7
-22 0 -18 17 5 23 11 3 20 12 20 21 0 9 7 16 15 16 8 0 15 -9 15 -19z m171
-31 c29 -16 23 -30 -10 -24 -22 5 -32 1 -45 -17 -35 -50 -11 -96 44 -84 23 5
30 3 30 -8 0 -20 -49 -31 -83 -18 -40 16 -51 45 -36 98 15 56 55 77 100 53z
m132 1 c56 -22 59 -123 3 -149 -55 -27 -96 8 -96 82 0 34 15 60 40 69 22 8 26
8 53 -2z m105 -73 c-2 -54 -7 -83 -15 -86 -10 -3 -13 18 -13 82 0 71 3 86 15
86 13 0 15 -14 13 -82z m159 60 c14 -11 19 -129 6 -141 -14 -15 -33 18 -33 57
0 50 -11 69 -36 64 -16 -3 -19 -11 -16 -61 3 -52 2 -57 -17 -57 -14 0 -23 8
-27 25 -8 33 5 118 19 128 15 10 87 0 104 -15z m-647 -63 c0 -57 -3 -75 -14
-75 -14 0 -26 42 -26 90 0 39 9 60 26 60 11 0 14 -18 14 -75z"/>
<path d="M6200 2424 c0 -20 4 -25 16 -20 9 3 22 6 29 6 8 0 11 7 8 20 -3 13
-14 20 -29 20 -19 0 -24 -5 -24 -26z"/>
<path d="M6190 2334 c0 -23 3 -25 33 -22 24 2 33 8 35 26 3 19 -1 22 -32 22
-32 0 -36 -3 -36 -26z"/>
<path d="M6706 2395 c-11 -11 -16 -29 -14 -49 3 -27 7 -31 32 -31 42 0 53 36
23 71 -22 25 -24 26 -41 9z"/>
<path d="M2686 2521 c-4 -5 3 -7 14 -4 23 6 26 13 6 13 -8 0 -17 -4 -20 -9z"/>
<path d="M2775 2509 c-11 -17 1 -21 15 -4 8 9 8 15 2 15 -6 0 -14 -5 -17 -11z"/>
<path d="M3155 2509 c-4 -6 -4 -13 -1 -16 3 -4 6 -1 6 5 0 16 42 15 60 0 12
-11 12 -10 1 5 -15 19 -56 23 -66 6z"/>
<path d="M3418 2513 c7 -3 16 -2 19 1 4 3 -2 6 -13 5 -11 0 -14 -3 -6 -6z"/>
<path d="M3670 2516 c0 -2 7 -7 16 -10 8 -3 12 -2 9 4 -6 10 -25 14 -25 6z"/>
<path d="M3968 2513 c7 -3 16 -2 19 1 4 3 -2 6 -13 5 -11 0 -14 -3 -6 -6z"/>
<path d="M4348 2513 c7 -3 16 -2 19 1 4 3 -2 6 -13 5 -11 0 -14 -3 -6 -6z"/>
<path d="M3266 2493 c-6 -14 -5 -15 5 -6 7 7 10 15 7 18 -3 3 -9 -2 -12 -12z"/>
<path d="M3152 2460 c0 -14 2 -19 5 -12 2 6 2 18 0 25 -3 6 -5 1 -5 -13z"/>
<path d="M3334 2451 c-5 -5 -18 -11 -29 -14 -15 -4 -14 -5 7 -6 15 0 30 4 33
10 9 14 1 21 -11 10z"/>
<path d="M8460 2365 c0 -95 0 -96 22 -84 28 15 118 80 118 85 0 6 -123 94
-132 94 -4 0 -8 -43 -8 -95z"/>
<path d="M3021 2413 c-10 -26 -10 -27 4 -9 8 11 15 23 15 28 0 15 -7 8 -19
-19z"/>
<path d="M2450 2259 c0 -11 4 -18 10 -14 5 3 7 12 3 20 -7 21 -13 19 -13 -6z"/>
<path d="M8882 2258 c-21 -22 -22 -22 -23 -3 0 14 -4 11 -11 -10 -24 -68 -104
-157 -173 -192 -57 -29 -192 -43 -244 -25 -24 9 -34 8 -45 -3 -10 -10 -25 -13
-47 -8 -70 14 -6 -38 101 -82 57 -23 185 -23 229 0 17 8 37 15 45 15 8 0 40
23 71 52 55 50 95 117 95 159 0 10 4 19 9 19 10 0 27 87 19 95 -2 3 -14 -5
-26 -17z"/>
<path d="M2269 2253 c-13 -16 -12 -17 4 -4 9 7 17 15 17 17 0 8 -8 3 -21 -13z"/>
<path d="M3306 2253 c-6 -14 -5 -15 5 -6 7 7 10 15 7 18 -3 3 -9 -2 -12 -12z"/>
<path d="M4390 2250 c0 -11 2 -20 4 -20 2 0 6 9 9 20 3 11 1 20 -4 20 -5 0 -9
-9 -9 -20z"/>
<path d="M4461 2234 c0 -11 3 -14 6 -6 3 7 2 16 -1 19 -3 4 -6 -2 -5 -13z"/>
<path d="M2565 2210 c-3 -5 -1 -10 4 -10 6 0 11 5 11 10 0 6 -2 10 -4 10 -3 0
-8 -4 -11 -10z"/>
<path d="M3371 2204 c0 -11 3 -14 6 -6 3 7 2 16 -1 19 -3 4 -6 -2 -5 -13z"/>
<path d="M4049 2183 c-13 -16 -12 -17 4 -4 16 13 21 21 13 21 -2 0 -10 -8 -17
-17z"/>
<path d="M3488 2183 c7 -3 16 -2 19 1 4 3 -2 6 -13 5 -11 0 -14 -3 -6 -6z"/>
<path d="M4959 1993 c-13 -16 -12 -17 4 -4 9 7 17 15 17 17 0 8 -8 3 -21 -13z"/>
<path d="M4913 1969 c-35 -35 -115 -39 -836 -38 -390 1 -711 -2 -715 -5 -3 -4
327 -5 734 -4 545 3 748 7 774 16 38 13 82 41 65 42 -6 0 -16 -5 -22 -11z"/>
<path d="M1433 1928 c14 -9 893 -11 885 -3 -3 4 -206 7 -451 8 -245 1 -440 -1
-434 -5z"/>
<path d="M2480 1930 c-66 -5 -48 -6 85 -7 117 0 153 2 115 7 -62 9 -79 9 -200
0z"/>
<path d="M2978 1923 c56 -2 148 -2 205 0 56 1 10 3 -103 3 -113 0 -159 -2
-102 -3z"/>
<path d="M9406 1811 c-4 -7 -5 -15 -2 -18 9 -9 19 4 14 18 -4 11 -6 11 -12 0z"/>
<path d="M9361 1730 c-72 -116 -203 -207 -336 -232 -57 -11 -788 -13 -4012
-13 -2168 0 -3933 -3 -3923 -7 10 -4 1797 -8 3972 -10 3220 -2 3961 0 3998 10
41 12 86 32 149 67 62 34 198 198 189 227 -2 6 -19 -13 -37 -42z"/>
<path d="M2960 9121 c0 -5 5 -13 10 -16 6 -3 10 -2 10 4 0 5 -4 13 -10 16 -5
3 -10 2 -10 -4z"/>
<path d="M2937 9106 c-6 -16 -10 -16 -24 -5 -14 12 -16 12 -12 0 3 -8 9 -16
15 -18 15 -5 37 14 32 28 -3 9 -6 8 -11 -5z"/>
<path d="M3005 9090 c-3 -5 -1 -10 4 -10 6 0 11 5 11 10 0 6 -2 10 -4 10 -3 0
-8 -4 -11 -10z"/>
<path d="M2846 9064 c-8 -22 -8 -23 12 -20 9 2 16 6 15 9 -2 4 -3 12 -3 17 0
16 -17 12 -24 -6z"/>
<path d="M3060 8979 c0 -15 18 -19 23 -6 3 8 -1 14 -9 14 -8 0 -14 -4 -14 -8z"/>
<path d="M2857 8961 c-4 -17 -3 -21 5 -13 5 5 8 16 6 23 -3 8 -7 3 -11 -10z"/>
<path d="M3046 8933 c-6 -14 -5 -15 5 -6 7 7 10 15 7 18 -3 3 -9 -2 -12 -12z"/>
<path d="M2870 8934 c0 -11 27 -32 50 -38 24 -7 24 -6 -2 11 -16 10 -28 21
-28 25 0 5 -4 8 -10 8 -5 0 -10 -3 -10 -6z"/>
<path d="M2940 8930 c0 -5 5 -10 10 -10 6 0 10 5 10 10 0 6 -4 10 -10 10 -5 0
-10 -4 -10 -10z"/>
<path d="M4360 9000 l0 -70 90 0 90 0 0 70 0 70 -29 0 c-27 0 -29 -3 -33 -45
-3 -44 -2 -45 26 -45 32 0 33 -6 1 -12 -11 -1 -25 -10 -32 -18 -10 -13 -12
-11 -13 12 0 24 -5 27 -37 31 l-38 4 38 1 c35 2 37 4 37 37 l0 35 -50 0 -50 0
0 -70z m167 -6 c-3 -3 -12 -4 -19 -1 -8 3 -5 6 6 6 11 1 17 -2 13 -5z m-92
-34 c-3 -5 -17 -9 -30 -8 -31 3 -21 18 11 18 14 0 22 -4 19 -10z"/>
<path d="M6251 9014 c-12 -15 -21 -37 -21 -49 0 -28 27 -61 56 -69 29 -9 84
37 84 69 0 35 -37 75 -70 75 -19 0 -36 -9 -49 -26z"/>
<path d="M1660 8870 c-28 -28 -25 -66 6 -95 15 -14 30 -25 35 -25 18 0 69 54
69 74 0 59 -68 88 -110 46z"/>
<path d="M185 7828 c-49 -26 -59 -77 -24 -122 28 -36 77 -36 113 0 33 34 33
70 -1 106 -28 30 -55 35 -88 16z"/>
<path d="M9883 6072 c-22 -3 -21 -6 20 -53 23 -27 47 -49 52 -48 11 0 88 89
83 95 -5 4 -130 9 -155 6z"/>
<path d="M156 5163 c-3 -4 -6 -24 -6 -46 0 -33 2 -38 15 -27 8 6 19 9 25 5 6
-4 10 8 10 32 0 31 -4 39 -19 40 -10 1 -22 -1 -25 -4z"/>
<path d="M9943 4940 c-42 -17 -57 -85 -27 -128 11 -16 25 -22 52 -22 41 1 63
13 80 47 18 34 14 52 -17 84 -30 30 -50 34 -88 19z"/>
<path d="M9831 4356 c-7 -8 -11 -27 -9 -43 6 -50 78 -40 78 11 0 41 -45 62
-69 32z"/>
<path d="M100 3035 l0 -85 54 0 c30 0 61 -3 70 -6 14 -5 16 6 16 85 l0 91 -70
0 -70 0 0 -85z"/>
<path d="M104 2908 c1 -21 6 -23 69 -26 66 -3 67 -3 67 23 0 24 -2 25 -69 25
-64 0 -68 -1 -67 -22z"/>
<path d="M7645 1024 c-70 -38 -111 -100 -99 -152 22 -92 95 -159 160 -149 80
13 154 89 154 157 0 99 -133 188 -215 144z m120 -84 c26 -50 14 -99 -33 -137
-20 -16 -74 -17 -90 -1 -17 17 -15 29 3 22 16 -6 18 4 15 63 -2 34 22 89 42
96 20 7 46 -11 63 -43z"/>
<path d="M7687 924 c-13 -13 -7 -24 11 -22 41 3 52 -2 52 -26 0 -28 -16 -43
-23 -24 -3 8 -6 6 -6 -4 -1 -10 2 -18 7 -18 19 1 30 18 33 55 4 39 3 40 -31
43 -20 2 -39 0 -43 -4z"/>
<path d="M7697 840 c3 -11 7 -20 9 -20 2 0 4 9 4 20 0 11 -4 20 -9 20 -5 0 -7
-9 -4 -20z"/>
<path d="M6497 796 c-14 -35 10 -54 47 -40 22 8 20 34 -2 34 -10 0 -23 5 -29
11 -7 7 -12 6 -16 -5z"/>
<path d="M2984 806 c-22 -35 -15 -71 15 -71 35 0 47 25 30 63 -17 38 -24 40
-45 8z"/>
</g>
</svg>
